<?xml version="1.0" encoding="utf-8"?>
<!-- Generator: Adobe Illustrator 24.1.0, SVG Export Plug-In . SVG Version: 6.00 Build 0)  -->
<svg version="1.1" xmlns="http://www.w3.org/2000/svg" xmlns:xlink="http://www.w3.org/1999/xlink" x="0px" y="0px"
	 viewBox="0 0 498 374" style="enable-background:new 0 0 498 374;" xml:space="preserve">
<style type="text/css">
	.st0{display:none;}
	.st1{display:inline;}
	.st2{font-family:'Mukta-ExtraBold';}
	.st3{font-size:86.6014px;}
	.st4{font-family:'RixMGoB';}
	.st5{font-size:18.6424px;}
	.st6{font-family:'Montserrat-BlackItalic';}
	.st7{font-size:106px;}
	.st8{font-size:61.5754px;}
	.st9{font-size:41.5754px;}
	.st10{fill:url(#SVGID_1_);}
	.st11{fill:#2E3049;}
	.st12{opacity:0.61;}
</style>
<g id="Layer_1" class="st0">
	<text transform="matrix(1 0 0 1 86.6099 160.625)" class="st1"><tspan x="0" y="0" class="st2 st3">PROJECT</tspan><tspan x="4.9" y="76" class="st2 st3">SERVICE</tspan></text>
	<text transform="matrix(1 0 0 1 85.3115 290.3262)" class="st1 st4 st5">개발하신 프로젝트 서비스의 화면캡처나 자료</text>
</g>
<g id="Layer_1_copy" class="st0">
	<text transform="matrix(1 0 0 1 86.936 154.8613)" class="st1"><tspan x="0" y="0" class="st6 st7">YOUR</tspan><tspan x="10.3" y="62.8" class="st6 st8">PROJECT</tspan><tspan x="9.9" y="107.8" class="st6 st9">description</tspan></text>
	<text transform="matrix(1 0 0 1 85.3115 306.3262)" class="st1 st4 st5">개발하신 프로젝트 서비스의 화면캡처나 자료</text>
</g>
<g id="Layer_1_copy_2">
	<linearGradient id="SVGID_1_" gradientUnits="userSpaceOnUse" x1="467" y1="405" x2="41.5252" y2="-20.4748">
		<stop  offset="0" style="stop-color:#FF94C7"/>
		<stop  offset="0.1136" style="stop-color:#E58BC4;stop-opacity:0.8864"/>
		<stop  offset="1" style="stop-color:#1945AC;stop-opacity:0"/>
	</linearGradient>
	<rect class="st10" width="498" height="374"/>
	<g>
		<path class="st11" d="M111,62.2l16.3,29.7l16.4-29.7H165l-28.5,47.5v33.2H117v-33.2L89.1,62.2H111z"/>
		<path class="st11" d="M207.8,60.7c5.8,0,11.2,1,16.1,2.9c4.9,1.9,9.2,4.7,12.8,8.3s6.4,8,8.4,13.2c2,5.2,3,11.1,3,17.7
			c0,6.4-1,12.2-3.1,17.3c-2.1,5.1-4.9,9.5-8.6,13.1c-3.6,3.6-7.9,6.4-12.9,8.3c-5,1.9-10.4,2.9-16.2,2.9c-5.8,0-11.2-0.9-16.1-2.8
			c-5-1.9-9.2-4.6-12.8-8.1c-3.6-3.5-6.4-7.9-8.4-13.1c-2-5.2-3-11-3-17.6c0-6.4,1-12.2,3.1-17.3c2-5.2,4.9-9.6,8.6-13.2
			c3.7-3.7,8-6.5,13-8.4C196.6,61.7,202,60.7,207.8,60.7z M187.4,102.7c0,4.5,0.5,8.5,1.6,11.9c1.1,3.4,2.5,6.2,4.4,8.4
			c1.9,2.2,4,3.9,6.5,5c2.4,1.1,5.1,1.7,7.9,1.7c2.7,0,5.3-0.6,7.7-1.7c2.4-1.1,4.5-2.8,6.3-5c1.8-2.2,3.2-5,4.2-8.4
			c1-3.4,1.5-7.4,1.5-11.9c0-4.7-0.5-8.8-1.6-12.2c-1.1-3.5-2.5-6.3-4.4-8.5c-1.9-2.2-4-3.9-6.5-5c-2.4-1.1-5.1-1.7-7.9-1.7
			c-2.7,0-5.3,0.6-7.7,1.7s-4.5,2.9-6.3,5.2c-1.8,2.3-3.2,5.2-4.2,8.6C188,94.2,187.4,98.1,187.4,102.7z"/>
		<path class="st11" d="M261.4,62.2h19.5v48.3c0,6.1,1.2,10.8,3.7,14.1c2.5,3.3,6.3,5,11.5,5c5.1,0,8.8-1.6,11.1-4.9
			c2.3-3.3,3.4-7.5,3.4-12.6V62.2H330v48.1c0,22.6-11.3,33.9-33.9,33.9c-10.8,0-19.2-2.8-25.4-8.4c-6.2-5.6-9.3-14.3-9.3-26.1V62.2z
			"/>
		<path class="st11" d="M346.9,62.2h32c4.6,0,8.7,0.7,12.2,2c3.5,1.3,6.5,3.1,8.8,5.4c2.3,2.3,4.1,5,5.3,8.1
			c1.2,3.1,1.8,6.4,1.8,9.9c0,3.3-0.5,6.3-1.5,8.8c-1,2.5-2.2,4.7-3.8,6.6c-1.5,1.9-3.2,3.4-5,4.6c-1.8,1.2-3.5,2.1-5,2.8l19.3,32.5
			h-22.4l-14.3-29.1h-8.1v29.1h-19.5V62.2z M366.4,99.1h5.9c4.4,0,8-0.9,10.8-2.7c2.7-1.8,4.1-4.7,4.1-8.7c0-3.3-1.1-6-3.3-7.9
			c-2.2-2-5.4-2.9-9.6-2.9h-7.8V99.1z"/>
		<path class="st11" d="M123,158.4h12.1l17,47.2h-12.1l-3.2-10.1H121l-3.2,10.1h-11.9L123,158.4z M123.5,187.3h10.8l-1.8-5.7
			c-0.6-1.8-1.2-3.8-1.8-5.9c-0.6-2.1-1.2-4-1.6-5.8h-0.1c-0.5,1.8-1.1,3.7-1.7,5.7c-0.7,2.1-1.3,4-1.9,6L123.5,187.3z"/>
		<path class="st11" d="M163.3,158.4l4.2,19.7c0.6,2.7,1.1,5.3,1.5,7.8c0.4,2.5,0.8,5.2,1.1,7.9h0.1c0.4-2.7,0.8-5.4,1.4-8
			c0.5-2.6,1-5.2,1.6-7.7l4.5-19.7h12.2l4.6,19.7c0.6,2.6,1.1,5.1,1.6,7.7c0.5,2.6,0.9,5.3,1.3,8.1h0.2c0.3-2.8,0.8-5.5,1.3-8.1
			c0.5-2.6,1-5.2,1.5-7.6l4-19.7h11.5l-11.5,47.2h-12.6l-4.7-20.1c-0.6-2.6-1.2-5.1-1.7-7.8c-0.6-2.6-1.1-5.3-1.6-8h-0.1
			c-0.5,2.7-1,5.4-1.5,7.9c-0.6,2.6-1.1,5.2-1.6,7.7l-4.6,20.2h-12.4l-11.7-47.2H163.3z"/>
		<path class="st11" d="M231.8,158.4h12.1l17,47.2h-12.1l-3.2-10.1h-15.9l-3.2,10.1h-11.9L231.8,158.4z M232.2,187.3H243l-1.8-5.7
			c-0.6-1.8-1.2-3.8-1.8-5.9c-0.6-2.1-1.2-4-1.6-5.8h-0.1c-0.5,1.8-1.1,3.7-1.7,5.7c-0.7,2.1-1.3,4-1.9,6L232.2,187.3z"/>
		<path class="st11" d="M267.3,158.4H286c2.7,0,5.1,0.4,7.2,1.2c2.1,0.8,3.8,1.8,5.2,3.2s2.4,2.9,3.1,4.7c0.7,1.8,1,3.7,1,5.8
			c0,2-0.3,3.7-0.9,5.1c-0.6,1.5-1.3,2.8-2.2,3.9c-0.9,1.1-1.9,2-2.9,2.7c-1,0.7-2,1.3-2.9,1.7l11.3,19h-13.1l-8.4-17h-4.7v17h-11.4
			V158.4z M278.7,180h3.5c2.6,0,4.7-0.5,6.3-1.6c1.6-1.1,2.4-2.8,2.4-5.1c0-2-0.7-3.5-2-4.6c-1.3-1.1-3.2-1.7-5.6-1.7h-4.6V180z"/>
		<path class="st11" d="M327.9,158.4c3.8,0,7.1,0.5,10.2,1.4c3,1,5.7,2.4,7.8,4.3c2.2,1.9,3.8,4.3,5,7.1c1.2,2.8,1.8,6.1,1.8,9.9
			c0,4.2-0.7,7.8-2.1,10.9c-1.4,3.1-3.3,5.6-5.7,7.7c-2.4,2-5.3,3.5-8.5,4.5c-3.3,1-6.7,1.5-10.3,1.5h-15v-47.2H327.9z M322.4,197
			h2.9c2,0,3.9-0.2,5.8-0.8c1.9-0.5,3.5-1.4,4.9-2.6c1.4-1.2,2.5-2.9,3.4-4.9c0.8-2,1.3-4.6,1.3-7.6c0-4.5-1.3-8-3.8-10.4
			s-6-3.6-10.4-3.6h-4.1V197z"/>
		<path class="st11" d="M376.3,157.5c3.3,0,6.2,0.3,8.5,1c2.4,0.7,4.5,1.5,6.2,2.4l-2.5,8.3c-2-1-3.9-1.8-5.9-2.4
			c-2-0.6-3.9-0.9-5.7-0.9c-2.3,0-4,0.4-5.2,1.3c-1.2,0.9-1.8,2-1.8,3.4c0,1.6,0.6,2.8,1.7,3.5c1.1,0.7,2.9,1.5,5.3,2.3l4.4,1.4
			c1.7,0.6,3.4,1.3,4.9,2.2s2.8,1.9,3.9,3c1.1,1.2,1.9,2.5,2.5,3.9c0.6,1.5,0.9,3,0.9,4.7c0,2-0.4,3.9-1.1,5.7
			c-0.8,1.8-1.9,3.3-3.4,4.7c-1.5,1.4-3.5,2.4-5.8,3.2c-2.3,0.8-5.1,1.2-8.2,1.2c-3,0-5.8-0.3-8.4-0.9c-2.7-0.6-5.1-1.5-7.4-2.7
			l2.5-8.3c2.1,1,4.2,1.9,6.3,2.5c2,0.6,4.2,0.9,6.5,0.9c2.6,0,4.6-0.4,5.7-1.3s1.8-2.1,1.8-3.6c0-0.5-0.1-1-0.3-1.5
			c-0.2-0.5-0.6-1-1.2-1.5c-0.6-0.5-1.4-1-2.4-1.5c-1-0.5-2.3-1-3.9-1.5l-3.7-1.3c-1.8-0.6-3.4-1.4-4.9-2.2s-2.8-1.8-3.9-2.9
			c-1.1-1.1-1.9-2.4-2.5-3.8c-0.6-1.4-0.9-3.2-0.9-5.2c0-2,0.4-3.9,1.2-5.7c0.8-1.7,1.9-3.3,3.5-4.5c1.5-1.3,3.4-2.3,5.6-3
			C370.9,157.9,373.4,157.5,376.3,157.5z"/>
		<path class="st11" d="M152.7,245.8c1.4,0,2.5-0.1,3.5-0.4c1-0.2,1.7-0.6,2.4-1l1.4,5c-0.6,0.4-1.6,0.7-3,1.1c-1.4,0.4-3,0.6-5,0.6
			c-2.3,0-4.4-0.4-6.3-1.1c-1.9-0.7-3.5-1.7-4.9-3c-1.3-1.3-2.4-2.9-3.2-4.7c-0.8-1.9-1.1-3.9-1.1-6.2c0-2.2,0.4-4.3,1.1-6.1
			c0.7-1.9,1.7-3.4,3.1-4.7c1.3-1.3,3-2.3,4.9-3c1.9-0.7,4.1-1.1,6.5-1.1c2,0,3.7,0.2,4.9,0.6c1.3,0.4,2.3,0.8,3,1.2l-1.6,5.1
			c-0.7-0.4-1.5-0.8-2.5-1.1c-1-0.3-2-0.5-3.2-0.5c-1.2,0-2.4,0.2-3.4,0.5c-1.1,0.4-2,0.9-2.8,1.7c-0.8,0.8-1.4,1.8-1.9,3
			c-0.5,1.2-0.7,2.7-0.7,4.4c0,1.6,0.2,3.1,0.7,4.3c0.4,1.2,1.1,2.2,1.9,3.1c0.8,0.8,1.7,1.4,2.8,1.8S151.4,245.8,152.7,245.8z"/>
		<path class="st11" d="M164.2,221.7h19.3v5.3h-12.3v5.9h11.1v5.3h-11.1v7.1h12.5v5.3h-19.5V221.7z"/>
		<path class="st11" d="M188.3,221.7h11.5c1.7,0,3.1,0.2,4.4,0.7c1.3,0.5,2.3,1.1,3.2,2c0.8,0.8,1.5,1.8,1.9,2.9
			c0.4,1.1,0.6,2.3,0.6,3.5c0,1.2-0.2,2.2-0.5,3.2c-0.4,0.9-0.8,1.7-1.4,2.4c-0.6,0.7-1.1,1.2-1.8,1.7c-0.6,0.4-1.2,0.8-1.8,1
			l6.9,11.7h-8l-5.2-10.4h-2.9v10.4h-7V221.7z M195.3,234.9h2.1c1.6,0,2.9-0.3,3.9-1c1-0.6,1.5-1.7,1.5-3.1c0-1.2-0.4-2.1-1.2-2.9
			c-0.8-0.7-1.9-1.1-3.5-1.1h-2.8V234.9z"/>
		<path class="st11" d="M215.1,221.7h19.3v5.3h-12.3v5.9h11.1v5.3h-11.1v7.1h12.5v5.3h-19.5V221.7z"/>
		<path class="st11" d="M241,221.7h8.7l3.1,10.2c0.2,0.6,0.4,1.3,0.7,2.1c0.2,0.8,0.5,1.7,0.7,2.5c0.2,0.9,0.4,1.8,0.6,2.6
			c0.2,0.9,0.4,1.7,0.5,2.5h0.2c0.1-0.8,0.3-1.7,0.5-2.7c0.2-1,0.5-1.9,0.7-2.8c0.2-0.9,0.5-1.7,0.7-2.5s0.4-1.4,0.5-1.8l3-10.2h8.7
			l2.1,29h-6.5l-0.5-9.8c-0.1-0.9-0.1-1.9-0.1-3c0-1.1-0.1-2.2-0.1-3.3c0-1.1,0-2.3,0-3.4c0-1.1,0-2.1,0-3h-0.1
			c-0.2,1-0.5,2.1-0.7,3.1c-0.3,1.1-0.5,2.1-0.8,3.2c-0.3,1.1-0.6,2.1-0.8,3.1c-0.3,1-0.6,1.9-0.8,2.7l-3.2,10.4h-5.2l-3.4-10.3
			c-0.3-0.9-0.6-1.8-0.8-2.8c-0.3-1-0.5-2-0.8-3.1c-0.3-1.1-0.5-2.1-0.8-3.2c-0.2-1.1-0.5-2.1-0.6-3.1h-0.1c0,1,0,2,0,3.2
			c0,1.1,0,2.3-0.1,3.5c0,1.1-0.1,2.3-0.1,3.3s-0.1,2-0.1,2.8l-0.5,9.8h-6.4L241,221.7z"/>
		<path class="st11" d="M291.2,221.1c2.1,0,4,0.3,5.8,1c1.8,0.7,3.3,1.7,4.6,3s2.3,2.9,3,4.7c0.7,1.9,1.1,4,1.1,6.3
			c0,2.3-0.4,4.4-1.1,6.2c-0.8,1.8-1.8,3.4-3.1,4.7c-1.3,1.3-2.9,2.3-4.6,3c-1.8,0.7-3.7,1-5.8,1c-2.1,0-4-0.3-5.8-1
			c-1.8-0.7-3.3-1.6-4.6-2.9s-2.3-2.8-3-4.7c-0.7-1.9-1.1-4-1.1-6.3c0-2.3,0.4-4.4,1.1-6.2c0.7-1.9,1.8-3.4,3.1-4.8
			c1.3-1.3,2.9-2.3,4.7-3C287.2,221.5,289.1,221.1,291.2,221.1z M283.9,236.2c0,1.6,0.2,3.1,0.6,4.3s0.9,2.2,1.6,3
			c0.7,0.8,1.4,1.4,2.3,1.8s1.8,0.6,2.8,0.6c1,0,1.9-0.2,2.8-0.6s1.6-1,2.3-1.8c0.6-0.8,1.1-1.8,1.5-3s0.6-2.7,0.6-4.3
			c0-1.7-0.2-3.2-0.6-4.4s-0.9-2.3-1.6-3.1c-0.7-0.8-1.4-1.4-2.3-1.8c-0.9-0.4-1.8-0.6-2.8-0.6c-1,0-1.9,0.2-2.8,0.6s-1.6,1-2.3,1.9
			c-0.6,0.8-1.1,1.9-1.5,3.1S283.9,234.6,283.9,236.2z"/>
		<path class="st11" d="M310.5,221.7h6.4l6.3,9.7c1.1,1.7,2.2,3.5,3.3,5.4c1.1,1.8,1.9,3.5,2.5,4.9h0.1c-0.2-1.8-0.2-3.7-0.3-5.5
			s0-3.7,0-5.5v-8.9h6.4v29h-6.4l-6.7-9.9c-1.1-1.6-2.1-3.3-3-5c-0.9-1.7-1.7-3.5-2.3-5.3h-0.1c0.2,1.9,0.2,3.8,0.3,5.6
			c0,1.8,0,3.6,0,5.4v9.2h-6.4V221.7z"/>
		<path class="st11" d="M346.6,221.7l5.8,10.7l5.9-10.7h7.7l-10.3,17.1v11.9h-7v-11.9l-10-17.1H346.6z"/>
		<path class="st11" d="M155.5,266.7H166c1.7,0,3.3,0.2,4.7,0.6c1.4,0.4,2.6,1,3.6,1.7c1,0.8,1.8,1.7,2.3,2.8
			c0.5,1.1,0.8,2.3,0.8,3.7c0,1.7-0.3,3.1-1,4.4c-0.6,1.2-1.5,2.2-2.6,3.1c-1.1,0.8-2.4,1.4-3.8,1.8c-1.5,0.4-3,0.6-4.6,0.6h-2.9
			v10.3h-7V266.7z M162.5,280.1h2.5c0.7,0,1.3-0.1,2-0.2c0.6-0.2,1.2-0.4,1.7-0.7c0.5-0.3,0.9-0.7,1.2-1.3c0.3-0.5,0.4-1.2,0.4-1.9
			c0-1.3-0.5-2.3-1.4-3c-0.9-0.7-2.1-1-3.6-1h-2.8V280.1z"/>
		<path class="st11" d="M188.9,266.7v29h-7v-29H188.9z"/>
		<path class="st11" d="M209.8,290.8c1.4,0,2.5-0.1,3.5-0.4c1-0.2,1.7-0.6,2.4-1l1.4,5c-0.6,0.4-1.6,0.7-3,1.1c-1.4,0.4-3,0.6-5,0.6
			c-2.3,0-4.4-0.4-6.3-1.1c-1.9-0.7-3.5-1.7-4.9-3c-1.3-1.3-2.4-2.9-3.2-4.7c-0.8-1.9-1.1-3.9-1.1-6.2c0-2.2,0.4-4.3,1.1-6.1
			c0.7-1.9,1.7-3.4,3.1-4.7c1.3-1.3,3-2.3,4.9-3c1.9-0.7,4.1-1.1,6.5-1.1c2,0,3.7,0.2,4.9,0.6c1.3,0.4,2.3,0.8,3,1.2l-1.6,5.1
			c-0.7-0.4-1.5-0.8-2.5-1.1c-1-0.3-2-0.5-3.2-0.5c-1.2,0-2.4,0.2-3.4,0.5c-1.1,0.4-2,0.9-2.8,1.7c-0.8,0.8-1.4,1.8-1.9,3
			c-0.5,1.2-0.7,2.7-0.7,4.4c0,1.6,0.2,3.1,0.7,4.3c0.4,1.2,1.1,2.2,1.9,3.1c0.8,0.8,1.7,1.4,2.8,1.8S208.6,290.8,209.8,290.8z"/>
		<path class="st11" d="M241.4,266.7v5.4h-7.9v23.6h-7v-23.6h-7.7v-5.4H241.4z"/>
		<path class="st11" d="M244.9,266.7h7V284c0,2.2,0.4,3.9,1.3,5.1c0.9,1.2,2.3,1.8,4.1,1.8c1.8,0,3.2-0.6,4-1.8
			c0.8-1.2,1.2-2.7,1.2-4.5v-17.9h7V284c0,8.1-4.1,12.2-12.2,12.2c-3.9,0-6.9-1-9.1-3c-2.2-2-3.3-5.2-3.3-9.4V266.7z"/>
		<path class="st11" d="M275.6,266.7h11.5c1.7,0,3.1,0.2,4.4,0.7s2.3,1.1,3.2,2c0.8,0.8,1.5,1.8,1.9,2.9c0.4,1.1,0.6,2.3,0.6,3.5
			c0,1.2-0.2,2.2-0.5,3.2s-0.8,1.7-1.4,2.4c-0.6,0.7-1.1,1.2-1.8,1.7c-0.6,0.4-1.2,0.8-1.8,1l6.9,11.7h-8l-5.2-10.4h-2.9v10.4h-7
			V266.7z M282.6,279.9h2.1c1.6,0,2.9-0.3,3.9-1c1-0.6,1.5-1.7,1.5-3.1c0-1.2-0.4-2.1-1.2-2.9c-0.8-0.7-1.9-1.1-3.5-1.1h-2.8V279.9z
			"/>
		<path class="st11" d="M302.4,266.7h19.3v5.3h-12.3v5.9h11.1v5.3h-11.1v7.1h12.5v5.3h-19.5V266.7z"/>
		<path class="st11" d="M336.3,266.1c2,0,3.8,0.2,5.2,0.6s2.7,0.9,3.8,1.5l-1.6,5.1c-1.2-0.6-2.4-1.1-3.6-1.4
			c-1.2-0.4-2.4-0.5-3.5-0.5c-1.4,0-2.5,0.3-3.2,0.8c-0.7,0.5-1.1,1.2-1.1,2.1c0,1,0.4,1.7,1.1,2.1c0.7,0.4,1.8,0.9,3.3,1.4l2.7,0.9
			c1.1,0.4,2.1,0.8,3,1.4c0.9,0.5,1.7,1.2,2.4,1.9c0.7,0.7,1.2,1.5,1.5,2.4c0.4,0.9,0.6,1.9,0.6,2.9c0,1.2-0.2,2.4-0.7,3.5
			c-0.5,1.1-1.2,2-2.1,2.9s-2.1,1.5-3.5,2c-1.4,0.5-3.1,0.7-5,0.7c-1.8,0-3.5-0.2-5.2-0.6c-1.6-0.4-3.2-0.9-4.5-1.6l1.6-5.1
			c1.3,0.6,2.6,1.1,3.9,1.5c1.3,0.4,2.6,0.6,4,0.6c1.6,0,2.8-0.3,3.5-0.8c0.7-0.5,1.1-1.3,1.1-2.2c0-0.3-0.1-0.6-0.2-0.9
			c-0.1-0.3-0.4-0.6-0.7-0.9c-0.4-0.3-0.8-0.6-1.5-0.9c-0.6-0.3-1.4-0.6-2.4-0.9l-2.3-0.8c-1.1-0.4-2.1-0.8-3-1.3s-1.7-1.1-2.4-1.7
			s-1.2-1.5-1.5-2.3c-0.4-0.9-0.6-1.9-0.6-3.2c0-1.3,0.2-2.4,0.7-3.5c0.5-1.1,1.2-2,2.1-2.8c0.9-0.8,2.1-1.4,3.5-1.8
			C332.9,266.4,334.5,266.1,336.3,266.1z"/>
	</g>
	<g class="st12">
		<path class="st11" d="M161.2,316.7c0-0.3,0-0.7,0-1c0-0.3,0-0.6-0.1-1h2.3c0,0.3-0.1,0.7-0.1,1c0,0.3,0,0.6,0,1v1.8
			c0,0.8,0.1,1.6,0.3,2.3c0.2,0.7,0.4,1.3,0.8,1.9c0.4,0.7,0.9,1.3,1.4,1.9c0.6,0.5,1.2,1,1.9,1.4c-0.3,0.2-0.6,0.5-0.8,0.7
			s-0.5,0.5-0.7,0.6c-0.3-0.2-0.7-0.5-1.1-0.8c-0.4-0.3-0.7-0.7-1.1-1.1c-0.4-0.4-0.7-0.8-1-1.3c-0.3-0.5-0.6-0.9-0.8-1.4
			c-0.1,0.4-0.3,0.9-0.6,1.3c-0.3,0.5-0.6,0.9-1,1.3c-0.4,0.4-0.8,0.9-1.2,1.2c-0.4,0.4-0.8,0.7-1.2,0.9c-0.2-0.2-0.5-0.4-0.8-0.7
			c-0.3-0.2-0.6-0.5-0.9-0.7c0.7-0.4,1.4-1,2-1.5c0.6-0.6,1.1-1.2,1.5-1.9c0.4-0.7,0.6-1.4,0.8-2.1s0.3-1.6,0.3-2.4V316.7z
			 M171.4,328.3c0,0.4,0,0.8,0,1.3c0,0.4,0,0.8,0.1,1.2h-2.2c0-0.4,0.1-0.8,0.1-1.2c0-0.4,0-0.8,0-1.3v-11.7c0-0.4,0-0.8,0-1.2
			c0-0.4,0-0.8-0.1-1.3h2.2c0,0.4-0.1,0.8-0.1,1.3c0,0.4,0,0.8,0,1.2V328.3z"/>
		<path class="st11" d="M177.2,316.1c0-0.3,0-0.5,0-0.8c0-0.2,0-0.5-0.1-0.8h2.3c0,0.3-0.1,0.5-0.1,0.8c0,0.2,0,0.5,0,0.8v0.3
			c0,0.6,0.1,1.2,0.3,1.7c0.2,0.5,0.5,1,0.9,1.5c0.4,0.4,0.8,0.8,1.3,1.2c0.5,0.3,1,0.6,1.5,0.7c-0.2,0.2-0.4,0.5-0.7,0.8
			c-0.3,0.3-0.5,0.6-0.6,0.8c-0.3-0.1-0.6-0.3-1-0.5c-0.3-0.2-0.7-0.4-1-0.7c-0.4-0.3-0.8-0.6-1.1-1s-0.6-0.7-0.8-1.2
			c-0.1,0.4-0.3,0.7-0.6,1.1s-0.6,0.7-0.9,1.1c-0.4,0.3-0.8,0.7-1.2,1c-0.4,0.3-0.8,0.5-1.1,0.7c-0.2-0.2-0.5-0.4-0.8-0.7
			c-0.3-0.3-0.6-0.5-0.9-0.7c0.6-0.3,1.2-0.7,1.8-1.1c0.6-0.4,1.1-0.9,1.5-1.5c0.3-0.4,0.6-0.9,0.8-1.4c0.2-0.5,0.3-1.1,0.3-1.7
			V316.1z M181.6,324.2c2,0,3.4,0.3,4.4,1s1.5,1.5,1.5,2.5c0,1-0.5,1.8-1.4,2.5c-1,0.6-2.4,1-4.4,1c-1.9,0-3.4-0.3-4.5-1
			c-1-0.6-1.5-1.5-1.5-2.5c0-1,0.5-1.8,1.5-2.5C178.2,324.6,179.6,324.2,181.6,324.2z M177.8,327.7c0,0.6,0.4,1,1.1,1.4
			c0.7,0.3,1.6,0.5,2.8,0.5c1.2,0,2.1-0.2,2.7-0.5c0.6-0.3,1-0.8,1-1.3c0-0.6-0.3-1-1-1.4s-1.6-0.5-2.7-0.5c-1.2,0-2.1,0.2-2.8,0.5
			C178.2,326.7,177.8,327.1,177.8,327.7z M187,317.8h0.8c0.2,0,0.5,0,0.7,0c0.2,0,0.5,0,0.7-0.1v1.9c-0.2,0-0.5-0.1-0.7-0.1
			c-0.2,0-0.5,0-0.7,0H187v2.7c0,0.3,0,0.6,0,1c0,0.3,0,0.6,0.1,0.9h-2.2c0-0.3,0.1-0.6,0.1-0.9c0-0.3,0-0.6,0-1V316
			c0-0.3,0-0.6,0-0.9c0-0.3,0-0.6-0.1-1h2.2c0,0.3-0.1,0.6-0.1,1c0,0.3,0,0.6,0,0.9V317.8z"/>
		<path class="st11" d="M193.9,316.1c0-0.3,0-0.5,0-0.8c0-0.2,0-0.5-0.1-0.8h2.3c0,0.3-0.1,0.5-0.1,0.8c0,0.2,0,0.5,0,0.8v0.5
			c0,0.6,0.1,1.1,0.3,1.6c0.2,0.5,0.5,1,0.8,1.4c0.4,0.5,0.8,0.9,1.4,1.3c0.5,0.4,1.1,0.6,1.6,0.8c-0.2,0.2-0.5,0.5-0.7,0.8
			c-0.2,0.3-0.4,0.5-0.6,0.7c-0.3-0.2-0.7-0.4-1.1-0.6c-0.4-0.2-0.7-0.5-1.1-0.8c-0.4-0.3-0.7-0.6-1-0.9c-0.3-0.3-0.6-0.7-0.8-1.1
			c-0.1,0.3-0.3,0.7-0.5,1c-0.3,0.4-0.5,0.7-0.8,1c-0.4,0.4-0.8,0.7-1.2,1s-0.8,0.5-1.2,0.7c-0.1-0.1-0.2-0.2-0.4-0.3
			c-0.1-0.1-0.3-0.2-0.4-0.4c-0.1-0.1-0.3-0.2-0.4-0.4c-0.1-0.1-0.3-0.2-0.4-0.3c0.6-0.3,1.2-0.6,1.7-1c0.6-0.4,1-0.9,1.4-1.4
			c0.4-0.5,0.7-1,0.9-1.5c0.2-0.6,0.3-1.2,0.3-1.8V316.1z M204,329.2c0,0.3,0,0.6,0,0.9c0,0.3,0,0.6,0.1,0.9h-2.2
			c0-0.3,0.1-0.5,0.1-0.9s0-0.6,0-0.9v-2.6h-7.5c-0.4,0-0.7,0-1,0c-0.3,0-0.7,0-1,0.1v-1.8c0.4,0,0.7,0.1,1,0.1s0.7,0,1,0h9.6
			c0,0.2-0.1,0.5-0.1,0.7c0,0.2,0,0.5,0,0.7V329.2z M204,316v8.1h-2V316c0-0.3,0-0.6,0-0.9c0-0.3,0-0.6-0.1-1h2.2
			c0,0.3-0.1,0.6-0.1,1C204,315.4,204,315.7,204,316z"/>
		<path class="st11" d="M223.2,323.3h-9.8c-0.5,0-1,0-1.4,0c-0.5,0-0.9,0-1.4,0.1v-1.9c0.5,0,1,0.1,1.4,0.1c0.5,0,0.9,0,1.4,0h9.8
			c0.5,0,1,0,1.4,0c0.5,0,0.9,0,1.4-0.1v1.9c-0.5,0-1-0.1-1.4-0.1C224.1,323.3,223.7,323.3,223.2,323.3z M214.1,314.6h8.3
			c0.3,0,0.6,0,0.9,0c0.3,0,0.6,0,0.9-0.1v1.9c-0.3,0-0.6-0.1-0.9-0.1c-0.3,0-0.6,0-0.9,0h-3c0.2,0.5,0.5,0.8,0.9,1.2
			c0.4,0.3,0.9,0.6,1.4,0.8c0.6,0.2,1.2,0.4,1.8,0.5c0.6,0.1,1.2,0.2,1.7,0.3c-0.2,0.3-0.5,0.6-0.7,0.8c-0.2,0.2-0.4,0.5-0.5,0.7
			c-0.5-0.1-1-0.2-1.6-0.3c-0.6-0.1-1.2-0.4-1.7-0.6c-0.5-0.2-1-0.5-1.4-0.8c-0.4-0.3-0.8-0.6-1.1-1c-0.3,0.4-0.6,0.7-1.1,1
			c-0.4,0.3-0.9,0.5-1.4,0.8c-0.5,0.2-1.1,0.4-1.6,0.6s-1.1,0.3-1.7,0.4c-0.1-0.1-0.2-0.2-0.3-0.3c-0.1-0.1-0.2-0.2-0.3-0.4
			c-0.1-0.1-0.2-0.3-0.3-0.4s-0.2-0.3-0.3-0.4c0.6-0.1,1.3-0.2,1.9-0.3c0.7-0.2,1.3-0.4,1.9-0.6c0.5-0.2,0.9-0.5,1.3-0.8
			c0.4-0.3,0.6-0.7,0.8-1.1h-3c-0.3,0-0.6,0-0.9,0c-0.3,0-0.6,0-0.9,0.1v-1.9c0.3,0,0.6,0.1,0.9,0.1
			C213.4,314.6,213.7,314.6,214.1,314.6z M212,327.8c0-0.9,0.5-1.7,1.6-2.3s2.6-0.9,4.6-0.9c2,0,3.6,0.3,4.6,0.9
			c1.1,0.6,1.6,1.4,1.6,2.3s-0.5,1.7-1.6,2.3c-1.1,0.6-2.6,0.9-4.6,0.9c-2,0-3.6-0.3-4.6-0.9S212,328.8,212,327.8z M222.2,327.9
			c0-0.5-0.4-1-1.1-1.3s-1.7-0.4-2.9-0.4c-1.2,0-2.2,0.1-2.9,0.4c-0.7,0.3-1,0.7-1,1.2c0,0.5,0.3,1,1,1.3c0.7,0.3,1.7,0.5,2.9,0.5
			c1.2,0,2.1-0.1,2.9-0.4C221.8,328.8,222.2,328.4,222.2,327.9z"/>
		<path class="st11" d="M236,323H228v-6.8c0-0.3,0-0.5,0-0.8c0-0.2,0-0.5-0.1-0.8h2.1c0,0.3-0.1,0.6-0.1,0.8c0,0.2,0,0.5,0,0.8v0.9
			h4v-0.9c0-0.3,0-0.5,0-0.8c0-0.2,0-0.5-0.1-0.8h2.1c0,0.3-0.1,0.6-0.1,0.8c0,0.2,0,0.5,0,0.8V323z M229.2,327.8
			c0-0.9,0.5-1.7,1.5-2.3c1-0.6,2.5-0.9,4.5-0.9c2,0,3.5,0.3,4.5,0.9c1,0.6,1.5,1.4,1.5,2.3c0,0.9-0.5,1.7-1.5,2.3
			c-1,0.6-2.5,0.9-4.5,0.9s-3.5-0.3-4.5-0.9S229.2,328.7,229.2,327.8z M234,321.3v-2.4h-4v2.4H234z M231.4,327.8
			c0,0.5,0.4,0.9,1.1,1.2c0.7,0.3,1.7,0.4,2.9,0.4c1.2,0,2.1-0.1,2.8-0.4c0.7-0.3,1.1-0.7,1.1-1.2s-0.4-0.9-1.1-1.2
			c-0.7-0.3-1.6-0.5-2.8-0.5c-1.2,0-2.1,0.1-2.9,0.4C231.7,326.8,231.4,327.3,231.4,327.8z M241.1,322.6c0,0.3,0,0.6,0,1
			s0,0.6,0.1,0.9H239c0-0.3,0.1-0.6,0.1-0.9c0-0.3,0-0.6,0-1V316c0-0.3,0-0.6,0-0.9c0-0.3,0-0.6-0.1-1h2.2c0,0.3-0.1,0.6-0.1,1
			c0,0.3,0,0.6,0,0.9V322.6z"/>
		<path class="st11" d="M253.6,316.7v1.8c0,0.8,0.1,1.6,0.3,2.3s0.4,1.3,0.8,1.9c0.4,0.7,0.9,1.3,1.4,1.9c0.6,0.5,1.2,1,1.9,1.4
			c-0.3,0.2-0.6,0.5-0.9,0.7c-0.3,0.2-0.5,0.5-0.7,0.6c-0.3-0.2-0.7-0.5-1.1-0.8c-0.4-0.3-0.7-0.7-1.1-1.1c-0.4-0.4-0.7-0.8-1-1.3
			c-0.3-0.5-0.6-0.9-0.8-1.4c-0.1,0.4-0.3,0.9-0.6,1.4c-0.3,0.5-0.6,0.9-1,1.3c-0.4,0.5-0.8,0.9-1.2,1.3c-0.4,0.4-0.8,0.7-1.1,0.9
			c-0.2-0.2-0.5-0.4-0.8-0.7c-0.3-0.2-0.6-0.5-0.9-0.7c0.8-0.5,1.4-1,2-1.6c0.6-0.6,1.1-1.2,1.5-1.9c0.3-0.6,0.6-1.3,0.8-2.1
			c0.2-0.7,0.3-1.5,0.3-2.4v-1.7c0-0.3,0-0.7,0-1c0-0.3,0-0.6-0.1-1h2.3c0,0.3-0.1,0.7-0.1,1C253.6,316.1,253.6,316.4,253.6,316.7z
			 M261.1,320.5h0.9c0.2,0,0.5,0,0.7,0c0.2,0,0.5,0,0.7-0.1v2c-0.2,0-0.5-0.1-0.7-0.1c-0.3,0-0.5,0-0.7,0h-0.9v6c0,0.4,0,0.8,0,1.3
			c0,0.4,0,0.8,0.1,1.2H259c0-0.4,0.1-0.8,0.1-1.2c0-0.4,0-0.8,0-1.3v-11.7c0-0.4,0-0.8,0-1.2c0-0.4,0-0.8-0.1-1.3h2.2
			c0,0.4-0.1,0.8-0.1,1.3c0,0.4,0,0.8,0,1.2V320.5z"/>
		<path class="st11" d="M268.4,316.6h-1.8c-0.3,0-0.5,0-0.7,0c-0.2,0-0.4,0-0.7,0.1v-1.9c0.3,0,0.5,0.1,0.7,0.1c0.2,0,0.4,0,0.7,0
			h5.8c0.2,0,0.5,0,0.7,0c0.2,0,0.4,0,0.7-0.1v1.9c-0.3,0-0.5-0.1-0.7-0.1c-0.2,0-0.4,0-0.7,0h-1.8v0.8c0,0.6,0.1,1.1,0.4,1.6
			s0.6,0.9,1,1.3c0.4,0.4,0.9,0.8,1.4,1.1s1,0.5,1.6,0.7c-0.2,0.2-0.5,0.5-0.8,0.8c-0.3,0.3-0.4,0.5-0.6,0.7c-0.3-0.1-0.6-0.3-1-0.5
			s-0.8-0.5-1.2-0.9c-0.3-0.3-0.7-0.5-1-0.9c-0.3-0.3-0.5-0.7-0.7-1c-0.2,0.4-0.4,0.7-0.7,1.1s-0.6,0.7-0.9,1
			c-0.4,0.3-0.8,0.7-1.3,1c-0.5,0.3-0.9,0.5-1.3,0.7c-0.2-0.1-0.4-0.4-0.7-0.6c-0.3-0.3-0.6-0.5-0.9-0.7c0.7-0.3,1.4-0.6,2-1
			c0.6-0.4,1.2-0.9,1.6-1.5c0.3-0.4,0.6-0.8,0.7-1.3c0.2-0.5,0.3-1,0.3-1.5V316.6z M267.2,330.5v-3.9c0-0.2,0-0.5,0-0.7
			c0-0.2,0-0.5-0.1-0.7h2.2c0,0.2-0.1,0.5-0.1,0.7c0,0.2,0,0.5,0,0.7v2.2h7.5c0.3,0,0.6,0,1,0c0.4,0,0.7,0,1.1-0.1v1.9
			c-0.4,0-0.8-0.1-1.1-0.1c-0.4,0-0.7,0-1,0H267.2z M278.5,324.6c0,0.3,0,0.6,0,1c0,0.3,0,0.6,0.1,0.9h-2.2c0-0.3,0.1-0.6,0.1-0.9
			c0-0.3,0-0.6,0-1V316c0-0.3,0-0.6,0-0.9c0-0.3,0-0.6-0.1-1h2.2c0,0.3-0.1,0.6-0.1,1c0,0.3,0,0.6,0,0.9V324.6z"/>
		<path class="st11" d="M293.7,321.7h-7.9v-5c0-0.3,0-0.6,0-0.9s0-0.6-0.1-1h8c0,0.3-0.1,0.7-0.1,1s0,0.6,0,0.9V321.7z M294.5,326.3
			c0.4,0.8,1.1,1.4,2,1.9c0.9,0.5,2,0.9,3.3,1.1c-0.2,0.2-0.5,0.5-0.7,0.7c-0.2,0.2-0.4,0.5-0.6,0.7c-0.5-0.1-1-0.2-1.5-0.4
			c-0.5-0.2-1-0.4-1.5-0.7c-0.5-0.3-0.9-0.6-1.3-0.9s-0.7-0.7-1-1.1c-0.6,0.7-1.4,1.3-2.3,1.9c-0.9,0.6-1.9,1-2.9,1.2
			c-0.1-0.1-0.2-0.2-0.3-0.3s-0.2-0.2-0.3-0.3c-0.1-0.1-0.2-0.3-0.3-0.4c-0.1-0.1-0.2-0.3-0.4-0.4c1.2-0.2,2.3-0.6,3.2-1.1
			s1.6-1.2,2.1-1.9h-2.8c-0.3,0-0.6,0-0.8,0c-0.3,0-0.5,0-0.8,0.1v-1.7c0.3,0,0.6,0.1,0.8,0.1c0.3,0,0.5,0,0.8,0h3.1v-1
			c0-0.2,0-0.4,0-0.6c0-0.2,0-0.4,0-0.6h2.1c0,0.2,0,0.4,0,0.6c0,0.2,0,0.4,0,0.6v1h3.1c0.3,0,0.6,0,0.8,0c0.3,0,0.5,0,0.8-0.1v1.7
			c-0.3,0-0.6-0.1-0.8-0.1c-0.3,0-0.5,0-0.8,0H294.5z M291.8,320v-3.6h-4v3.6H291.8z M299,316v7.3h-2V316c0-0.3,0-0.6,0-0.9
			c0-0.3,0-0.6-0.1-1h2.2c0,0.3-0.1,0.6-0.1,1C299,315.4,299,315.7,299,316z"/>
		<path class="st11" d="M309.7,316.9h-1.9c-0.3,0-0.5,0-0.7,0c-0.2,0-0.5,0-0.7,0.1v-1.9c0.3,0,0.5,0.1,0.7,0.1c0.2,0,0.5,0,0.7,0
			h6.1c0.3,0,0.5,0,0.7,0c0.2,0,0.5,0,0.7-0.1v1.9c-0.3,0-0.5-0.1-0.7-0.1c-0.2,0-0.5,0-0.7,0h-2v1.5c0,0.8,0.1,1.6,0.3,2.3
			c0.2,0.7,0.4,1.4,0.8,2c0.4,0.7,0.8,1.3,1.4,1.8c0.6,0.6,1.2,1,2,1.5c-0.3,0.2-0.5,0.5-0.8,0.7c-0.3,0.3-0.5,0.5-0.7,0.7
			c-0.3-0.2-0.7-0.5-1.1-0.8c-0.4-0.3-0.7-0.7-1.1-1c-0.4-0.4-0.8-0.8-1.1-1.3c-0.3-0.5-0.6-0.9-0.7-1.4c-0.1,0.5-0.4,0.9-0.7,1.4
			c-0.3,0.5-0.6,0.9-0.9,1.3c-0.4,0.5-0.8,0.9-1.2,1.2c-0.4,0.4-0.8,0.7-1.2,1c-0.2-0.2-0.5-0.4-0.8-0.6c-0.3-0.2-0.6-0.5-1-0.7
			c0.7-0.4,1.4-0.9,2-1.5c0.6-0.6,1.1-1.2,1.5-1.9c0.4-0.7,0.7-1.4,0.9-2.2c0.2-0.8,0.3-1.6,0.3-2.6V316.9z M319.2,320.5h0.9
			c0.2,0,0.5,0,0.7,0c0.2,0,0.5,0,0.7-0.1v2c-0.2,0-0.5-0.1-0.7-0.1c-0.3,0-0.5,0-0.7,0h-0.9v6c0,0.4,0,0.8,0,1.3
			c0,0.4,0,0.8,0.1,1.2h-2.2c0-0.4,0.1-0.8,0.1-1.2c0-0.4,0-0.8,0-1.3v-11.7c0-0.4,0-0.8,0-1.2c0-0.4,0-0.8-0.1-1.3h2.2
			c0,0.4-0.1,0.8-0.1,1.3c0,0.4,0,0.8,0,1.2V320.5z"/>
		<path class="st11" d="M325.9,324.6h-2.1v-5.7h9.5v-2.3h-7.8c-0.3,0-0.5,0-0.8,0c-0.3,0-0.5,0-0.8,0.1v-1.9c0.3,0,0.6,0.1,0.8,0.1
			c0.3,0,0.5,0,0.8,0h9.9c0,0.2-0.1,0.5-0.1,0.8c0,0.3,0,0.6,0,0.8v4.1h-9.5v2.3h8.2c0.3,0,0.6,0,0.8,0c0.3,0,0.5,0,0.8-0.1v1.9
			c-0.3,0-0.6-0.1-0.9-0.1c-0.3,0-0.5,0-0.8,0h-0.6v2.7h1.1c0.5,0,1,0,1.4,0c0.5,0,0.9,0,1.4-0.1v1.9c-0.5,0-1-0.1-1.4-0.1
			c-0.5,0-0.9,0-1.4,0h-9.9c-0.5,0-1,0-1.4,0c-0.5,0-0.9,0-1.4,0.1v-1.9c0.5,0,1,0.1,1.4,0.1c0.5,0,0.9,0,1.4,0h1.2V324.6z
			 M327.9,324.6v2.7h3.5v-2.7H327.9z"/>
	</g>
</g>
</svg>
