<?xml version="1.0" encoding="utf-8"?>
<!-- Generator: Adobe Illustrator 24.1.0, SVG Export Plug-In . SVG Version: 6.00 Build 0)  -->
<svg version="1.1" xmlns="http://www.w3.org/2000/svg" xmlns:xlink="http://www.w3.org/1999/xlink" x="0px" y="0px"
	 viewBox="0 0 498 374" style="enable-background:new 0 0 498 374;" xml:space="preserve">
<style type="text/css">
	.st0{display:none;}
	.st1{display:inline;}
	.st2{font-family:'Mukta-ExtraBold';}
	.st3{font-size:86.6014px;}
	.st4{font-family:'RixMGoB';}
	.st5{font-size:18.6424px;}
	.st6{font-family:'Montserrat-BlackItalic';}
	.st7{font-size:106px;}
	.st8{font-size:61.5754px;}
	.st9{font-size:41.5754px;}
	.st10{fill:url(#SVGID_1_);}
	.st11{fill:#2E3049;}
	.st12{opacity:0.57;}
</style>
<g id="Layer_1" class="st0">
	<text transform="matrix(1 0 0 1 86.6099 160.625)" class="st1"><tspan x="0" y="0" class="st2 st3">PROJECT</tspan><tspan x="4.9" y="76" class="st2 st3">SERVICE</tspan></text>
	<text transform="matrix(1 0 0 1 85.3115 290.3262)" class="st1 st4 st5">개발하신 프로젝트 서비스의 화면캡처나 자료</text>
</g>
<g id="Layer_1_copy" class="st0">
	<text transform="matrix(1 0 0 1 86.936 154.8613)" class="st1"><tspan x="0" y="0" class="st6 st7">YOUR</tspan><tspan x="10.3" y="62.8" class="st6 st8">PROJECT</tspan><tspan x="9.9" y="107.8" class="st6 st9">description</tspan></text>
	<text transform="matrix(1 0 0 1 85.3115 306.3262)" class="st1 st4 st5">개발하신 프로젝트 서비스의 화면캡처나 자료</text>
</g>
<g id="Layer_1_copy_2">
	<linearGradient id="SVGID_1_" gradientUnits="userSpaceOnUse" x1="467" y1="405" x2="41.5252" y2="-20.4748">
		<stop  offset="0" style="stop-color:#FF94C7"/>
		<stop  offset="0.1136" style="stop-color:#E58BC4;stop-opacity:0.8864"/>
		<stop  offset="1" style="stop-color:#1945AC;stop-opacity:0"/>
	</linearGradient>
	<rect class="st10" width="498" height="374"/>
	<g>
		<path class="st11" d="M111,82.2l16.3,29.7l16.4-29.7H165l-28.5,47.5v33.2H117v-33.2L89.1,82.2H111z"/>
		<path class="st11" d="M207.8,80.7c5.8,0,11.2,1,16.1,2.9c4.9,1.9,9.2,4.7,12.8,8.3s6.4,8,8.4,13.2c2,5.2,3,11.1,3,17.7
			c0,6.4-1,12.2-3.1,17.3c-2.1,5.1-4.9,9.5-8.6,13.1c-3.6,3.6-7.9,6.4-12.9,8.3c-5,1.9-10.4,2.9-16.2,2.9c-5.8,0-11.2-0.9-16.1-2.8
			c-5-1.9-9.2-4.6-12.8-8.1c-3.6-3.5-6.4-7.9-8.4-13.1c-2-5.2-3-11-3-17.6c0-6.4,1-12.2,3.1-17.3c2-5.2,4.9-9.6,8.6-13.2
			c3.7-3.7,8-6.5,13-8.4C196.6,81.7,202,80.7,207.8,80.7z M187.4,122.7c0,4.5,0.5,8.5,1.6,11.9c1.1,3.4,2.5,6.2,4.4,8.4
			c1.9,2.2,4,3.9,6.5,5c2.4,1.1,5.1,1.7,7.9,1.7c2.7,0,5.3-0.6,7.7-1.7c2.4-1.1,4.5-2.8,6.3-5c1.8-2.2,3.2-5,4.2-8.4
			c1-3.4,1.5-7.4,1.5-11.9c0-4.7-0.5-8.8-1.6-12.2c-1.1-3.5-2.5-6.3-4.4-8.5c-1.9-2.2-4-3.9-6.5-5c-2.4-1.1-5.1-1.7-7.9-1.7
			c-2.7,0-5.3,0.6-7.7,1.7s-4.5,2.9-6.3,5.2c-1.8,2.3-3.2,5.2-4.2,8.6C188,114.2,187.4,118.1,187.4,122.7z"/>
		<path class="st11" d="M261.4,82.2h19.5v48.3c0,6.1,1.2,10.8,3.7,14.1c2.5,3.3,6.3,5,11.5,5c5.1,0,8.8-1.6,11.1-4.9
			c2.3-3.3,3.4-7.5,3.4-12.6V82.2H330v48.1c0,22.6-11.3,33.9-33.9,33.9c-10.8,0-19.2-2.8-25.4-8.4c-6.2-5.6-9.3-14.3-9.3-26.1V82.2z
			"/>
		<path class="st11" d="M346.9,82.2h32c4.6,0,8.7,0.7,12.2,2c3.5,1.3,6.5,3.1,8.8,5.4c2.3,2.3,4.1,5,5.3,8.1
			c1.2,3.1,1.8,6.4,1.8,9.9c0,3.3-0.5,6.3-1.5,8.8c-1,2.5-2.2,4.7-3.8,6.6c-1.5,1.9-3.2,3.4-5,4.6c-1.8,1.2-3.5,2.1-5,2.8l19.3,32.5
			h-22.4l-14.3-29.1h-8.1v29.1h-19.5V82.2z M366.4,119.1h5.9c4.4,0,8-0.9,10.8-2.7c2.7-1.8,4.1-4.7,4.1-8.7c0-3.3-1.1-6-3.3-7.9
			c-2.2-2-5.4-2.9-9.6-2.9h-7.8V119.1z"/>
		<path class="st11" d="M115,178.4h17.1c2.9,0,5.4,0.3,7.7,1c2.3,0.7,4.3,1.6,5.9,2.9c1.6,1.2,2.9,2.8,3.8,4.5
			c0.9,1.8,1.3,3.8,1.3,6.1c0,2.8-0.5,5.1-1.6,7.1c-1,2-2.5,3.7-4.2,5c-1.8,1.3-3.9,2.3-6.2,2.9c-2.4,0.6-4.9,0.9-7.5,0.9h-4.8v16.8
			H115V178.4z M126.4,200.2h4.1c1.1,0,2.2-0.1,3.2-0.4c1-0.2,2-0.6,2.7-1.2c0.8-0.5,1.4-1.2,1.9-2.1c0.5-0.8,0.7-1.9,0.7-3.1
			c0-2.1-0.7-3.8-2.2-4.9c-1.5-1.1-3.4-1.7-5.9-1.7h-4.6V200.2z"/>
		<path class="st11" d="M158,178.4h18.8c2.7,0,5.1,0.4,7.2,1.2c2.1,0.8,3.8,1.8,5.2,3.2c1.4,1.4,2.4,2.9,3.1,4.7
			c0.7,1.8,1.1,3.7,1.1,5.8c0,2-0.3,3.7-0.9,5.1c-0.6,1.5-1.3,2.8-2.2,3.9c-0.9,1.1-1.9,2-2.9,2.7c-1.1,0.7-2,1.3-2.9,1.7l11.3,19
			h-13.1l-8.4-17h-4.7v17H158V178.4z M169.4,200h3.4c2.6,0,4.7-0.5,6.3-1.6c1.6-1.1,2.4-2.8,2.4-5.1c0-2-0.7-3.5-2-4.6
			c-1.3-1.1-3.2-1.7-5.6-1.7h-4.6V200z"/>
		<path class="st11" d="M223.5,177.5c3.4,0,6.5,0.6,9.5,1.7c2.9,1.1,5.4,2.7,7.5,4.8s3.7,4.7,4.9,7.7c1.2,3.1,1.8,6.5,1.8,10.4
			c0,3.8-0.6,7.1-1.8,10.1c-1.2,3-2.9,5.6-5,7.7c-2.1,2.1-4.6,3.8-7.6,4.9c-2.9,1.1-6.1,1.7-9.5,1.7c-3.4,0-6.6-0.6-9.5-1.7
			c-2.9-1.1-5.4-2.7-7.5-4.8c-2.1-2.1-3.7-4.6-4.9-7.6c-1.2-3-1.8-6.5-1.8-10.3c0-3.8,0.6-7.1,1.8-10.2c1.2-3,2.9-5.6,5-7.8
			c2.1-2.1,4.7-3.8,7.6-4.9C216.9,178.1,220.1,177.5,223.5,177.5z M211.6,202.1c0,2.7,0.3,5,0.9,7c0.6,2,1.5,3.7,2.6,5
			c1.1,1.3,2.4,2.3,3.8,2.9c1.4,0.7,3,1,4.6,1c1.6,0,3.1-0.3,4.5-1c1.4-0.6,2.7-1.6,3.7-2.9c1.1-1.3,1.9-2.9,2.5-5
			c0.6-2,0.9-4.3,0.9-7c0-2.7-0.3-5.1-0.9-7.2c-0.6-2-1.5-3.7-2.6-5c-1.1-1.3-2.4-2.3-3.8-2.9c-1.4-0.6-3-1-4.6-1
			c-1.6,0-3.1,0.3-4.5,1c-1.4,0.7-2.7,1.7-3.7,3c-1.1,1.3-1.9,3-2.5,5C211.9,197.2,211.6,199.5,211.6,202.1z"/>
		<path class="st11" d="M265.9,178.4V217c0,2.1-0.1,3.9-0.2,5.5c-0.1,1.6-0.4,3.1-0.7,4.4s-0.8,2.5-1.3,3.6
			c-0.6,1.1-1.3,2.1-2.1,3.1c-1.8,1.9-3.9,3.2-6.4,4c-2.5,0.8-5.2,1.1-8.1,1.1v-8.6c1.3,0,2.3-0.2,3.2-0.6c0.9-0.4,1.6-0.8,2.1-1.3
			c0.9-0.8,1.5-1.8,1.8-3c0.3-1.2,0.4-2.7,0.4-4.3v-42.6H265.9z"/>
		<path class="st11" d="M275.8,178.4h31.5v8.7h-20.1v9.7h18.2v8.6h-18.2V217h20.3v8.7h-31.7V178.4z"/>
		<path class="st11" d="M338.9,217.8c2.2,0,4.1-0.2,5.7-0.6c1.5-0.4,2.8-0.9,3.9-1.6l2.2,8.2c-1,0.6-2.6,1.2-4.8,1.8
			c-2.2,0.6-5,0.9-8.2,0.9c-3.7,0-7.1-0.6-10.2-1.7c-3.1-1.1-5.8-2.8-8-4.9c-2.2-2.1-3.9-4.7-5.1-7.7c-1.2-3-1.8-6.4-1.8-10.2
			c0-3.6,0.6-7,1.8-10c1.2-3,2.9-5.6,5-7.7c2.2-2.1,4.8-3.8,8-5c3.1-1.2,6.6-1.8,10.5-1.8c3.3,0,6,0.3,8.1,0.9
			c2.1,0.6,3.7,1.3,4.9,1.9l-2.5,8.3c-1.2-0.6-2.5-1.2-4.1-1.7c-1.6-0.5-3.3-0.8-5.2-0.8c-2,0-3.9,0.3-5.6,0.9
			c-1.8,0.6-3.3,1.5-4.6,2.7c-1.3,1.2-2.3,2.9-3.1,4.8c-0.8,2-1.1,4.4-1.1,7.2c0,2.7,0.4,5,1.1,7c0.7,2,1.7,3.7,3,5
			c1.3,1.3,2.8,2.3,4.5,3C334.9,217.5,336.8,217.8,338.9,217.8z"/>
		<path class="st11" d="M390.4,178.4v8.9h-12.9v38.4h-11.4v-38.4h-12.6v-8.9H390.4z"/>
		<path class="st11" d="M127.8,241.7c2.3,0,4.4,0.3,6.3,0.9c1.9,0.6,3.5,1.5,4.8,2.6c1.3,1.2,2.4,2.6,3.1,4.3c0.7,1.7,1.1,3.7,1.1,6
			c0,2.6-0.4,4.8-1.3,6.7c-0.9,1.9-2,3.4-3.5,4.7c-1.5,1.2-3.2,2.2-5.2,2.8c-2,0.6-4.1,0.9-6.3,0.9h-9.2v-29H127.8z M124.5,265.3
			h1.8c1.2,0,2.4-0.2,3.6-0.5c1.1-0.3,2.2-0.8,3-1.6c0.9-0.8,1.5-1.8,2.1-3c0.5-1.3,0.8-2.8,0.8-4.7c0-2.8-0.8-4.9-2.3-6.4
			c-1.6-1.5-3.7-2.2-6.3-2.2h-2.5V265.3z"/>
		<path class="st11" d="M147.8,241.7h19.3v5.3h-12.3v5.9h11.1v5.3h-11.1v7.1h12.5v5.3h-19.5V241.7z"/>
		<path class="st11" d="M181.6,241.1c2,0,3.8,0.2,5.2,0.6c1.5,0.4,2.7,0.9,3.8,1.5l-1.6,5.1c-1.2-0.6-2.4-1.1-3.6-1.4
			c-1.2-0.4-2.4-0.5-3.5-0.5c-1.4,0-2.5,0.3-3.2,0.8c-0.7,0.5-1.1,1.2-1.1,2.1c0,1,0.4,1.7,1.1,2.1c0.7,0.4,1.8,0.9,3.3,1.4l2.7,0.9
			c1.1,0.4,2.1,0.8,3,1.4c0.9,0.5,1.7,1.2,2.4,1.9c0.7,0.7,1.2,1.5,1.5,2.4c0.4,0.9,0.6,1.9,0.6,2.9c0,1.2-0.2,2.4-0.7,3.5
			c-0.5,1.1-1.2,2-2.1,2.9c-0.9,0.8-2.1,1.5-3.5,2c-1.4,0.5-3.1,0.7-5,0.7c-1.8,0-3.5-0.2-5.2-0.6c-1.6-0.4-3.2-0.9-4.5-1.6l1.6-5.1
			c1.3,0.6,2.6,1.1,3.9,1.5c1.3,0.4,2.6,0.6,4,0.6c1.6,0,2.8-0.3,3.5-0.8c0.7-0.5,1.1-1.3,1.1-2.2c0-0.3-0.1-0.6-0.2-0.9
			c-0.1-0.3-0.4-0.6-0.7-0.9c-0.4-0.3-0.8-0.6-1.5-0.9c-0.6-0.3-1.4-0.6-2.4-0.9l-2.3-0.8c-1.1-0.4-2.1-0.8-3-1.3
			c-0.9-0.5-1.7-1.1-2.4-1.7c-0.7-0.7-1.2-1.5-1.5-2.3c-0.4-0.9-0.6-1.9-0.6-3.2c0-1.3,0.2-2.4,0.7-3.5c0.5-1.1,1.2-2,2.1-2.8
			c0.9-0.8,2.1-1.4,3.5-1.8C178.3,241.4,179.8,241.1,181.6,241.1z"/>
		<path class="st11" d="M211.8,265.8c1.4,0,2.5-0.1,3.5-0.4c1-0.2,1.7-0.6,2.4-1l1.4,5c-0.6,0.4-1.6,0.7-3,1.1c-1.4,0.4-3,0.6-5,0.6
			c-2.3,0-4.4-0.4-6.3-1.1c-1.9-0.7-3.5-1.7-4.9-3c-1.3-1.3-2.4-2.9-3.2-4.7c-0.8-1.9-1.1-3.9-1.1-6.2c0-2.2,0.4-4.3,1.1-6.1
			c0.7-1.9,1.7-3.4,3.1-4.7c1.3-1.3,3-2.3,4.9-3c1.9-0.7,4.1-1.1,6.5-1.1c2,0,3.7,0.2,4.9,0.6c1.3,0.4,2.3,0.8,3,1.2l-1.6,5.1
			c-0.7-0.4-1.5-0.8-2.5-1.1c-1-0.3-2-0.5-3.2-0.5c-1.2,0-2.4,0.2-3.4,0.5c-1.1,0.4-2,0.9-2.8,1.7c-0.8,0.8-1.4,1.8-1.9,3
			c-0.5,1.2-0.7,2.7-0.7,4.4c0,1.6,0.2,3.1,0.7,4.3c0.4,1.2,1.1,2.2,1.9,3.1c0.8,0.8,1.7,1.4,2.8,1.8S210.6,265.8,211.8,265.8z"/>
		<path class="st11" d="M223.4,241.7h11.5c1.7,0,3.1,0.2,4.4,0.7c1.3,0.5,2.3,1.1,3.2,2c0.8,0.8,1.5,1.8,1.9,2.9
			c0.4,1.1,0.6,2.3,0.6,3.5c0,1.2-0.2,2.2-0.5,3.2c-0.4,0.9-0.8,1.7-1.4,2.4c-0.6,0.7-1.1,1.2-1.8,1.7c-0.6,0.4-1.2,0.8-1.8,1
			l6.9,11.7h-8l-5.2-10.4h-2.9v10.4h-7V241.7z M230.4,254.9h2.1c1.6,0,2.9-0.3,3.9-1c1-0.6,1.5-1.7,1.5-3.1c0-1.2-0.4-2.1-1.2-2.9
			c-0.8-0.7-1.9-1.1-3.5-1.1h-2.8V254.9z"/>
		<path class="st11" d="M257.2,241.7v29h-7v-29H257.2z"/>
		<path class="st11" d="M263.3,241.7h10.5c1.7,0,3.3,0.2,4.7,0.6s2.6,1,3.6,1.7c1,0.8,1.8,1.7,2.3,2.8c0.5,1.1,0.8,2.3,0.8,3.7
			c0,1.7-0.3,3.1-1,4.4c-0.6,1.2-1.5,2.2-2.6,3.1c-1.1,0.8-2.4,1.4-3.8,1.8c-1.5,0.4-3,0.6-4.6,0.6h-2.9v10.3h-7V241.7z
			 M270.3,255.1h2.5c0.7,0,1.3-0.1,2-0.2c0.6-0.2,1.2-0.4,1.7-0.7s0.9-0.7,1.2-1.3c0.3-0.5,0.4-1.2,0.4-1.9c0-1.3-0.5-2.3-1.4-3
			c-0.9-0.7-2.1-1-3.6-1h-2.8V255.1z"/>
		<path class="st11" d="M309.7,241.7v5.4h-7.9v23.6h-7v-23.6H287v-5.4H309.7z"/>
		<path class="st11" d="M320.1,241.7v29h-7v-29H320.1z"/>
		<path class="st11" d="M339.6,241.1c2.1,0,4,0.3,5.8,1c1.8,0.7,3.3,1.7,4.6,3s2.3,2.9,3,4.7c0.7,1.9,1.1,4,1.1,6.3
			c0,2.3-0.4,4.4-1.1,6.2c-0.8,1.8-1.8,3.4-3.1,4.7c-1.3,1.3-2.9,2.3-4.6,3c-1.8,0.7-3.7,1-5.8,1c-2.1,0-4-0.3-5.8-1
			c-1.8-0.7-3.3-1.6-4.6-2.9s-2.3-2.8-3-4.7c-0.7-1.9-1.1-4-1.1-6.3c0-2.3,0.4-4.4,1.1-6.2c0.7-1.9,1.8-3.4,3.1-4.8
			c1.3-1.3,2.9-2.3,4.7-3C335.6,241.5,337.5,241.1,339.6,241.1z M332.3,256.2c0,1.6,0.2,3.1,0.6,4.3s0.9,2.2,1.6,3
			c0.7,0.8,1.4,1.4,2.3,1.8s1.8,0.6,2.8,0.6c1,0,1.9-0.2,2.8-0.6s1.6-1,2.3-1.8c0.6-0.8,1.1-1.8,1.5-3s0.6-2.7,0.6-4.3
			c0-1.7-0.2-3.2-0.6-4.4s-0.9-2.3-1.6-3.1c-0.7-0.8-1.4-1.4-2.3-1.8c-0.9-0.4-1.8-0.6-2.8-0.6c-1,0-1.9,0.2-2.8,0.6s-1.6,1-2.3,1.9
			c-0.6,0.8-1.1,1.9-1.5,3.1S332.3,254.6,332.3,256.2z"/>
		<path class="st11" d="M358.9,241.7h6.4l6.3,9.7c1.1,1.7,2.2,3.5,3.3,5.4c1.1,1.8,1.9,3.5,2.5,4.9h0.1c-0.2-1.8-0.2-3.7-0.3-5.5
			s0-3.7,0-5.5v-8.9h6.4v29h-6.4l-6.7-9.9c-1.1-1.6-2.1-3.3-3-5c-0.9-1.7-1.7-3.5-2.3-5.3H365c0.2,1.9,0.2,3.8,0.3,5.6
			c0,1.8,0,3.6,0,5.4v9.2h-6.4V241.7z"/>
	</g>
	<g class="st12">
		<path class="st11" d="M88.5,303c-0.3,0-0.6,0-0.8,0c-0.3,0-0.5,0-0.8,0.1v-1.9c0.3,0,0.6,0.1,0.8,0.1s0.5,0,0.8,0h4.7
			c0,1.3-0.1,2.5-0.3,3.6s-0.5,2.1-0.9,3c-0.5,1.1-1.1,2.2-1.8,3.1s-1.6,1.7-2.5,2.5c-0.2-0.2-0.5-0.4-0.9-0.6
			c-0.4-0.2-0.7-0.4-0.9-0.5c0.9-0.6,1.7-1.3,2.4-2c0.7-0.7,1.2-1.5,1.7-2.4c0.4-0.7,0.7-1.5,0.8-2.3c0.2-0.8,0.3-1.7,0.3-2.6H88.5z
			 M96.6,306.1h1.8v-3.5c0-0.4,0-0.8,0-1.2c0-0.4,0-0.8-0.1-1.3h2.1c0,0.4-0.1,0.8-0.1,1.3c0,0.4,0,0.8,0,1.2v11.7
			c0,0.4,0,0.8,0,1.3c0,0.4,0,0.8,0.1,1.2h-2.1c0-0.4,0.1-0.8,0.1-1.2c0-0.4,0-0.8,0-1.3v-6.2h-1.8v5.4c0,0.4,0,0.8,0,1.3
			c0,0.4,0,0.8,0.1,1.2h-2c0-0.4,0-0.8,0.1-1.2c0-0.4,0-0.8,0-1.3v-10.6c0-0.4,0-0.8,0-1.2c0-0.4,0-0.8-0.1-1.3h2
			c0,0.4-0.1,0.8-0.1,1.3c0,0.4,0,0.8,0,1.2V306.1z"/>
		<path class="st11" d="M111.1,308.2h-8v-6c0-0.3,0-0.5,0-0.8c0-0.2,0-0.5-0.1-0.8h2.1c0,0.3-0.1,0.6-0.1,0.8c0,0.2,0,0.5,0,0.8v0.6
			h4v-0.6c0-0.3,0-0.5,0-0.8c0-0.2,0-0.5-0.1-0.8h2.1c0,0.3-0.1,0.6-0.1,0.8c0,0.2,0,0.5,0,0.8V308.2z M104.9,316.7v-4.4h8.9V311
			h-7.2c-0.3,0-0.5,0-0.8,0c-0.3,0-0.6,0-0.8,0.1v-1.7c0.3,0,0.6,0.1,0.8,0.1c0.3,0,0.5,0,0.8,0h9.5c0,0.2-0.1,0.5-0.1,0.7
			c0,0.2,0,0.5,0,0.7v2.9h-8.8v1.4h7.5c0.3,0,0.6,0,0.8,0c0.3,0,0.5,0,0.8-0.1v1.7c-0.3,0-0.6-0.1-0.9-0.1c-0.3,0-0.5,0-0.8,0H104.9
			z M109.1,306.5v-2h-4v2H109.1z M115.9,303.2h0.7c0.2,0,0.5,0,0.7,0c0.2,0,0.5,0,0.7-0.1v1.9c-0.2,0-0.5-0.1-0.7-0.1
			c-0.2,0-0.5,0-0.7,0h-0.8v3.8h-2V302c0-0.3,0-0.6,0-0.9c0-0.3,0-0.6-0.1-1h2.2c0,0.3-0.1,0.6-0.1,1c0,0.3,0,0.6,0,0.9V303.2z"/>
		<path class="st11" d="M127.3,304.2h-6.8c-0.3,0-0.5,0-0.7,0s-0.5,0-0.7,0.1v-1.9c0.3,0,0.5,0.1,0.7,0.1c0.2,0,0.5,0,0.7,0h2.4
			v-1.4c0-0.2,0-0.4,0-0.6c0-0.2,0-0.4,0-0.6h2.2c0,0.2,0,0.4,0,0.6c0,0.2,0,0.4,0,0.6v1.4h2.3c0.3,0,0.5,0,0.7,0
			c0.2,0,0.5,0,0.7-0.1v1.9c-0.3,0-0.5-0.1-0.7-0.1S127.5,304.2,127.3,304.2z M119.5,309.5c0-0.6,0.1-1.1,0.3-1.7s0.5-1,0.9-1.4
			s0.9-0.7,1.4-1c0.6-0.2,1.2-0.4,1.9-0.4c0.6,0,1.2,0.1,1.8,0.4c0.5,0.2,1,0.6,1.4,1c0.4,0.4,0.7,0.9,0.9,1.4
			c0.2,0.5,0.3,1.1,0.3,1.7c0,0.6-0.1,1.1-0.3,1.6c-0.2,0.5-0.5,1-0.9,1.4c-0.4,0.4-0.8,0.8-1.4,1c-0.5,0.2-1.1,0.4-1.8,0.4
			c-0.7,0-1.3-0.1-1.8-0.4c-0.5-0.2-1-0.6-1.4-1c-0.4-0.4-0.7-0.9-0.9-1.4C119.6,310.6,119.5,310.1,119.5,309.5z M121.5,309.5
			c0,0.7,0.2,1.3,0.6,1.8s1,0.8,1.8,0.8c0.7,0,1.3-0.3,1.7-0.8c0.4-0.5,0.7-1.1,0.7-1.8c0-0.7-0.2-1.3-0.7-1.8s-1-0.8-1.7-0.8
			c-0.8,0-1.4,0.3-1.8,0.8S121.5,308.8,121.5,309.5z M132.3,306.9h0.9c0.2,0,0.5,0,0.7,0c0.2,0,0.5,0,0.7-0.1v2
			c-0.2,0-0.5-0.1-0.7-0.1c-0.3,0-0.5,0-0.7,0h-0.9v5.6c0,0.4,0,0.8,0,1.3c0,0.4,0,0.8,0.1,1.2h-2.1c0-0.4,0.1-0.8,0.1-1.2
			c0-0.4,0-0.8,0-1.3v-11.7c0-0.4,0-0.8,0-1.2c0-0.4,0-0.8-0.1-1.3h2.1c0,0.4-0.1,0.8-0.1,1.3c0,0.4,0,0.8,0,1.2V306.9z"/>
		<path class="st11" d="M141.1,302.5v0.3c0,0.6,0.1,1.2,0.3,1.7c0.2,0.5,0.5,1,0.9,1.5c0.4,0.5,0.8,0.9,1.3,1.2
			c0.5,0.3,1,0.6,1.6,0.8c-0.2,0.2-0.5,0.5-0.7,0.8c-0.2,0.3-0.4,0.5-0.6,0.7c-0.3-0.1-0.7-0.3-1-0.6c-0.4-0.2-0.7-0.5-1-0.8
			c-0.4-0.3-0.7-0.6-1-1s-0.6-0.7-0.8-1.1c-0.1,0.4-0.3,0.8-0.6,1.2c-0.3,0.4-0.6,0.7-1,1.1c-0.4,0.3-0.7,0.7-1.1,0.9
			s-0.8,0.5-1.1,0.7c-0.2-0.2-0.4-0.4-0.7-0.6c-0.3-0.3-0.6-0.5-0.9-0.7c0.6-0.3,1.2-0.6,1.8-1.1c0.6-0.4,1.1-0.9,1.5-1.4
			c0.4-0.4,0.6-0.9,0.9-1.5c0.2-0.5,0.3-1.1,0.3-1.8v-0.3c0-0.3,0-0.7,0-1c0-0.3,0-0.6-0.1-1h2.3c0,0.4-0.1,0.7-0.1,1
			C141.2,301.8,141.1,302.1,141.1,302.5z M137.9,316.5v-3.9c0-0.2,0-0.5,0-0.7c0-0.2,0-0.5-0.1-0.7h2.2c0,0.2-0.1,0.5-0.1,0.7
			c0,0.2,0,0.5,0,0.7v2.2h7.5c0.3,0,0.6,0,1,0c0.4,0,0.7,0,1.1-0.1v1.9c-0.4,0-0.8-0.1-1.1-0.1c-0.4,0-0.7,0-1,0H137.9z
			 M149.2,310.5c0,0.3,0,0.6,0,1c0,0.3,0,0.6,0.1,0.9h-2.2c0-0.3,0.1-0.6,0.1-0.9c0-0.3,0-0.6,0-1V302c0-0.3,0-0.6,0-0.9
			c0-0.3,0-0.6-0.1-1h2.2c0,0.3-0.1,0.6-0.1,1c0,0.3,0,0.6,0,0.9V310.5z"/>
		<path class="st11" d="M168.3,314.7h-9.9c-0.5,0-1,0-1.4,0c-0.5,0-0.9,0-1.4,0.1v-1.9c0.5,0,1,0.1,1.4,0.1c0.5,0,0.9,0,1.4,0h9.9
			c0.5,0,1,0,1.4,0c0.5,0,0.9,0,1.4-0.1v1.9c-0.5,0-1-0.1-1.4-0.1C169.3,314.7,168.8,314.7,168.3,314.7z M167.6,302.7l-0.1,5.4h0.5
			c0.3,0,0.6,0,0.9,0c0.3,0,0.6,0,0.9-0.1v1.9c-0.3,0-0.6-0.1-0.9-0.1c-0.3,0-0.6,0-0.9,0h-9.4c-0.3,0-0.6,0-0.9,0
			c-0.3,0-0.6,0-0.9,0.1V308c0.3,0,0.6,0.1,0.9,0.1c0.3,0,0.6,0,0.9,0h0.5l-0.1-5.4h-0.1c-0.3,0-0.6,0-0.9,0c-0.3,0-0.6,0-0.9,0.1
			v-1.9c0.3,0,0.6,0.1,0.9,0.1c0.3,0,0.6,0,0.9,0h8.6c0.3,0,0.6,0,0.9,0c0.3,0,0.6,0,0.9-0.1v1.9c-0.3,0-0.6-0.1-0.9-0.1
			C168.3,302.7,168,302.7,167.6,302.7z M165.6,302.7h-4.5l0.1,5.4h4.4L165.6,302.7z"/>
		<path class="st11" d="M180.7,310.6v2.6h3.9c0.5,0,1,0,1.4,0c0.5,0,0.9,0,1.4-0.1v1.9c-0.5,0-1-0.1-1.4-0.1c-0.5,0-0.9,0-1.4,0
			h-9.9c-0.5,0-1,0-1.4,0c-0.5,0-0.9,0-1.4,0.1v-1.9c0.5,0,1,0.1,1.4,0.1c0.5,0,0.9,0,1.4,0h3.8v-2.6H174v-5.7h9.5v-2.3h-7.8
			c-0.3,0-0.5,0-0.8,0c-0.3,0-0.5,0-0.8,0.1v-1.9c0.3,0,0.6,0.1,0.8,0.1c0.3,0,0.5,0,0.8,0h9.9c0,0.2-0.1,0.5-0.1,0.8
			c0,0.3,0,0.6,0,0.8v4.1h-9.5v2.3h8.2c0.3,0,0.6,0,0.8,0c0.3,0,0.5,0,0.8-0.1v1.9c-0.3,0-0.6-0.1-0.9-0.1c-0.3,0-0.5,0-0.8,0H180.7
			z"/>
		<path class="st11" d="M191.8,302.6h-1.1c-0.2,0-0.5,0-0.7,0c-0.2,0-0.4,0-0.7,0.1v-1.8c0.2,0,0.5,0.1,0.7,0.1c0.2,0,0.4,0,0.7,0
			h4.3c0.2,0,0.5,0,0.7,0c0.2,0,0.4,0,0.7-0.1v1.8c-0.2,0-0.5-0.1-0.7-0.1c-0.2,0-0.4,0-0.7,0h-1.1v1.2c0,0.5,0.1,1,0.2,1.4
			s0.4,0.8,0.6,1.1c0.3,0.4,0.7,0.7,1.1,1s0.8,0.5,1.3,0.7c-0.2,0.3-0.5,0.5-0.6,0.7s-0.4,0.5-0.5,0.7c-0.2-0.1-0.5-0.3-0.8-0.4
			c-0.3-0.2-0.6-0.4-0.8-0.6c-0.3-0.2-0.5-0.4-0.8-0.7c-0.2-0.3-0.5-0.5-0.7-0.8c-0.2,0.3-0.3,0.6-0.5,0.9c-0.2,0.3-0.4,0.5-0.7,0.8
			c-0.3,0.3-0.5,0.5-0.9,0.8c-0.3,0.2-0.6,0.5-1,0.7c-0.1-0.1-0.2-0.2-0.3-0.3c-0.1-0.1-0.2-0.2-0.4-0.3c-0.1-0.1-0.2-0.2-0.4-0.3
			c-0.1-0.1-0.3-0.2-0.4-0.4c0.6-0.3,1.2-0.7,1.6-1c0.5-0.4,0.9-0.8,1.2-1.3c0.2-0.3,0.4-0.7,0.5-1.1s0.2-0.9,0.2-1.3V302.6z
			 M203.1,315.2c0,0.3,0,0.6,0,0.9c0,0.3,0,0.6,0.1,0.9H201c0-0.3,0.1-0.5,0.1-0.9c0-0.3,0-0.6,0-0.9v-2.6h-7.8c-0.4,0-0.7,0-1,0
			c-0.3,0-0.7,0-1,0.1v-1.9c0.4,0,0.7,0.1,1,0.1s0.7,0,1,0h9.8c0,0.2-0.1,0.5-0.1,0.7c0,0.2,0,0.5,0,0.7V315.2z M197.9,305.5h-1
			c-0.2,0-0.4,0-0.7,0c-0.2,0-0.4,0-0.6,0.1v-1.9c0.2,0,0.4,0.1,0.7,0.1s0.5,0,0.7,0h1v-1.2c0-0.4,0-0.7,0-1.1c0-0.4,0-0.7-0.1-1.1
			h2.1c0,0.4-0.1,0.7-0.1,1.1c0,0.4,0,0.7,0,1.1v7.5h-1.9V305.5z M203.1,302.4v7.8h-1.9v-7.8c0-0.4,0-0.7,0-1.1s0-0.7-0.1-1.1h2.1
			c0,0.4-0.1,0.7-0.1,1.1S203.1,302,203.1,302.4z"/>
		<path class="st11" d="M217.3,314.7h-9.9c-0.5,0-1,0-1.4,0c-0.5,0-0.9,0-1.4,0.1v-1.9c0.5,0,1,0.1,1.4,0.1c0.5,0,0.9,0,1.4,0h9.9
			c0.5,0,1,0,1.4,0c0.5,0,0.9,0,1.4-0.1v1.9c-0.5,0-1-0.1-1.4-0.1C218.2,314.7,217.8,314.7,217.3,314.7z M206.6,302.8
			c0-0.3,0-0.6,0-1s0-0.6-0.1-1h9.5c0.3,0,0.6,0,1,0c0.3,0,0.7,0,1.1-0.1v1.8c-0.4,0-0.8,0-1.1,0c-0.3,0-0.7,0-1,0h-7.3v2.3h9.4v1.7
			h-9.4v2.3h9.6v1.7h-11.7V302.8z"/>
		<path class="st11" d="M231.6,302.7v1.8c0,0.8,0.1,1.6,0.3,2.3c0.2,0.7,0.4,1.3,0.8,1.9c0.4,0.7,0.9,1.3,1.4,1.9
			c0.6,0.5,1.2,1,1.9,1.4c-0.3,0.2-0.6,0.5-0.8,0.7s-0.5,0.5-0.7,0.6c-0.3-0.2-0.7-0.5-1.1-0.8c-0.4-0.3-0.7-0.7-1.1-1.1
			c-0.4-0.4-0.7-0.8-1-1.3c-0.3-0.5-0.6-0.9-0.8-1.4c-0.1,0.4-0.3,0.9-0.6,1.3c-0.3,0.5-0.6,0.9-1,1.3c-0.4,0.4-0.8,0.9-1.2,1.2
			c-0.4,0.4-0.8,0.7-1.2,0.9c-0.2-0.2-0.5-0.4-0.8-0.7c-0.3-0.2-0.6-0.5-0.9-0.7c0.8-0.5,1.5-1,2-1.6s1.1-1.3,1.5-2
			c0.3-0.6,0.6-1.3,0.8-2.1c0.2-0.7,0.3-1.5,0.3-2.4v-1.7c0-0.3,0-0.7,0-1c0-0.3,0-0.6-0.1-1h2.3c0,0.3-0.1,0.7-0.1,1
			C231.6,302.1,231.6,302.4,231.6,302.7z M237.7,307h-2c-0.2,0-0.5,0-0.7,0c-0.3,0-0.5,0-0.7,0.1v-2c0.2,0,0.5,0.1,0.7,0.1
			c0.2,0,0.5,0,0.7,0h2v-2.5c0-0.4,0-0.8,0-1.2c0-0.4,0-0.8-0.1-1.3h2.2c0,0.4-0.1,0.8-0.1,1.3c0,0.4,0,0.8,0,1.2v11.7
			c0,0.4,0,0.8,0,1.3c0,0.4,0,0.8,0.1,1.2h-2.2c0-0.4,0.1-0.8,0.1-1.2c0-0.4,0-0.8,0-1.3V307z"/>
		<path class="st11" d="M250.9,312.9H243v-9.9c0-0.3,0-0.7,0-1c0-0.3,0-0.6-0.1-1h2.1c0,0.3-0.1,0.7-0.1,1c0,0.3,0,0.6,0,1v2.1h4
			v-2.1c0-0.3,0-0.7,0-1c0-0.3,0-0.6-0.1-1h2.1c0,0.3-0.1,0.7-0.1,1c0,0.3,0,0.6,0,1V312.9z M249,311.1v-4.3h-4v4.3H249z
			 M255.9,314.3c0,0.4,0,0.8,0,1.3c0,0.4,0,0.8,0.1,1.2h-2.2c0-0.4,0.1-0.8,0.1-1.2c0-0.4,0-0.8,0-1.3v-11.7c0-0.4,0-0.8,0-1.2
			c0-0.4,0-0.8-0.1-1.3h2.2c0,0.4-0.1,0.8-0.1,1.3c0,0.4,0,0.8,0,1.2V314.3z"/>
		<path class="st11" d="M270.7,314.8h-9.9c-0.5,0-1,0-1.4,0c-0.5,0-0.9,0-1.4,0.1v-1.9c0.5,0,1,0.1,1.4,0.1c0.5,0,0.9,0,1.4,0h9.9
			c0.5,0,1,0,1.4,0c0.5,0,0.9,0,1.4-0.1v1.9c-0.5,0-1-0.1-1.4-0.1C271.7,314.8,271.2,314.8,270.7,314.8z M266.8,302.3
			c0,0.7,0.2,1.4,0.5,2.1c0.4,0.7,0.8,1.3,1.4,1.8c0.6,0.6,1.2,1,1.9,1.5c0.7,0.4,1.5,0.7,2.2,0.9c-0.2,0.2-0.5,0.5-0.7,0.8
			c-0.2,0.3-0.4,0.5-0.6,0.7c-0.5-0.2-1.1-0.4-1.6-0.7s-1.1-0.7-1.7-1.1c-0.5-0.4-1-0.9-1.5-1.4s-0.8-1-1.1-1.6
			c-0.3,0.5-0.6,1-1,1.5s-0.8,0.9-1.3,1.2c-0.5,0.4-1.1,0.8-1.7,1.2c-0.6,0.3-1.2,0.6-1.9,0.8c-0.2-0.2-0.4-0.4-0.6-0.7
			c-0.2-0.3-0.5-0.6-0.8-0.8c0.8-0.2,1.6-0.5,2.3-0.9c0.7-0.4,1.4-0.9,1.9-1.4c0.6-0.5,1-1.1,1.4-1.8c0.3-0.6,0.5-1.4,0.5-2.1
			c0-0.2,0-0.5,0-0.8c0-0.3,0-0.5-0.1-0.8h2.3c0,0.2-0.1,0.5-0.1,0.8C266.8,301.8,266.8,302,266.8,302.3z"/>
		<path class="st11" d="M276.8,313.4c-0.3,0-0.7,0-1,0c-0.3,0-0.6,0-1,0.1v-1.9c0.3,0,0.7,0.1,1,0.1c0.3,0,0.6,0,1,0l3.2-0.1
			c0.3,0,0.7,0,1.2,0s1.1-0.1,1.7-0.1c0.6,0,1.2-0.1,1.8-0.2c0.6-0.1,1.1-0.1,1.6-0.2v1.7c-1.2,0.2-2.6,0.4-4.2,0.5
			C280.4,313.4,278.7,313.4,276.8,313.4z M275.6,304.9c0-0.6,0.1-1.1,0.3-1.6s0.5-1,0.9-1.4c0.4-0.4,0.9-0.7,1.4-0.9
			c0.6-0.2,1.2-0.3,1.8-0.3s1.3,0.1,1.8,0.3c0.5,0.2,1,0.5,1.4,0.9c0.4,0.4,0.7,0.8,0.9,1.4s0.3,1.1,0.3,1.6c0,0.6-0.1,1.2-0.3,1.7
			s-0.5,1-0.9,1.4c-0.4,0.4-0.9,0.7-1.4,0.9c-0.5,0.2-1.1,0.3-1.8,0.3s-1.3-0.1-1.8-0.3c-0.6-0.2-1-0.5-1.4-0.9
			c-0.4-0.4-0.7-0.9-0.9-1.4S275.6,305.5,275.6,304.9z M277.6,304.9c0,0.7,0.2,1.3,0.7,1.8c0.5,0.5,1.1,0.8,1.9,0.8
			c0.8,0,1.4-0.2,1.8-0.7c0.4-0.5,0.7-1.1,0.7-1.8c0-0.7-0.2-1.3-0.7-1.8c-0.4-0.5-1.1-0.8-1.8-0.8c-0.8,0-1.4,0.2-1.9,0.7
			C277.8,303.6,277.6,304.2,277.6,304.9z M288.8,314.3c0,0.4,0,0.8,0,1.3c0,0.4,0,0.8,0.1,1.2h-2.1c0-0.4,0.1-0.8,0.1-1.2
			c0-0.4,0-0.8,0-1.3v-11.7c0-0.4,0-0.8,0-1.2c0-0.4,0-0.8-0.1-1.3h2.1c0,0.4-0.1,0.8-0.1,1.3c0,0.4,0,0.8,0,1.2V314.3z"/>
		<path class="st11" d="M301.7,310.5v1.4c0.3,0,0.6,0,1,0c0.4,0,0.8,0,1.2-0.1c0.4,0,0.8-0.1,1.2-0.1c0.4,0,0.8-0.1,1.1-0.1v1.7
			c-0.7,0.1-1.7,0.2-3.1,0.3c-1.3,0.1-2.8,0.1-4.4,0.1h-1.7c-0.3,0-0.6,0-0.9,0c-0.3,0-0.6,0-0.9,0.1V312c0.3,0,0.6,0.1,0.9,0.1
			c0.3,0,0.6,0,0.9,0h2.5v-1.5c-0.9-0.1-1.7-0.5-2.2-1s-0.9-1.3-0.8-2.2c0-1,0.4-1.8,1.1-2.4c0.8-0.6,1.8-0.8,3-0.8
			c1.2,0,2.2,0.3,2.9,0.9c0.8,0.6,1.2,1.4,1.2,2.4c0,0.9-0.3,1.6-0.8,2.1S302.6,310.4,301.7,310.5z M303.7,303.6h-6.4
			c-0.3,0-0.5,0-0.7,0s-0.5,0-0.7,0.1v-1.8c0.3,0,0.5,0.1,0.7,0.1s0.5,0,0.7,0h2.2v-1c0-0.2,0-0.4,0-0.6c0-0.2,0-0.4,0-0.6h2.2
			c0,0.2,0,0.4,0,0.6s0,0.4,0,0.6v1h2.1c0.3,0,0.5,0,0.7,0s0.5,0,0.7-0.1v1.8c-0.3,0-0.5-0.1-0.7-0.1S304,303.6,303.7,303.6z
			 M300.5,305.8c-0.7,0-1.2,0.2-1.6,0.5s-0.6,0.7-0.6,1.2c0,0.4,0.2,0.8,0.6,1.2c0.4,0.3,0.9,0.5,1.6,0.5c0.7,0,1.2-0.2,1.6-0.5
			c0.4-0.3,0.6-0.7,0.6-1.2c0-0.4-0.2-0.8-0.6-1.2C301.7,305.9,301.2,305.8,300.5,305.8z M308.9,307.1h0.9c0.2,0,0.5,0,0.7,0
			c0.2,0,0.5,0,0.7-0.1v2c-0.2,0-0.5-0.1-0.7-0.1c-0.3,0-0.5,0-0.7,0h-0.9v5.4c0,0.4,0,0.8,0,1.3c0,0.4,0,0.8,0.1,1.2h-2.2
			c0-0.4,0.1-0.8,0.1-1.2c0-0.4,0-0.8,0-1.3v-11.7c0-0.4,0-0.8,0-1.2c0-0.4,0-0.8-0.1-1.3h2.2c0,0.4-0.1,0.8-0.1,1.3
			c0,0.4,0,0.8,0,1.2V307.1z"/>
		<path class="st11" d="M323.6,302.3V302c0-0.3,0-0.6,0-0.9c0-0.3,0-0.6-0.1-1h2.2c0,0.3-0.1,0.6-0.1,1c0,0.3,0,0.6,0,0.9v8.2
			c0,0.3,0,0.6,0,1c0,0.3,0,0.6,0.1,0.9h-2.2c0-0.3,0.1-0.6,0.1-0.9c0-0.3,0-0.6,0-1v-2.8h-3.2v1.7h-7.8v-6.5c0-0.3,0-0.6,0-0.9
			c0-0.3,0-0.6-0.1-1h8c0,0.3-0.1,0.5-0.1,0.8c0,0.2,0,0.5,0,0.7H323.6z M314.3,316.5v-4.2c0-0.2,0-0.5,0-0.7c0-0.2,0-0.5-0.1-0.7
			h2.2c0,0.2-0.1,0.5-0.1,0.7c0,0.2,0,0.5,0,0.7v2.5h7.5c0.3,0,0.6,0,1,0c0.4,0,0.7,0,1.1-0.1v1.9c-0.4,0-0.8-0.1-1.1-0.1
			c-0.4,0-0.7,0-1,0H314.3z M318.5,307.4v-4.8h-3.9v4.8H318.5z M323.6,304h-3.2v1.8h3.2V304z"/>
		<path class="st11" d="M330.7,302.4c-0.3,0-0.6,0-0.8,0c-0.3,0-0.5,0-0.8,0.1v-1.7c0.3,0,0.6,0.1,0.8,0.1c0.3,0,0.5,0,0.8,0h4.8
			c0,0.9-0.2,1.8-0.5,2.6c-0.3,0.8-0.6,1.5-1.1,2.1c-0.6,0.8-1.2,1.5-2,2c-0.8,0.6-1.7,1-2.6,1.4c-0.1-0.2-0.4-0.4-0.6-0.7
			c-0.3-0.2-0.5-0.5-0.7-0.7c0.9-0.3,1.6-0.6,2.3-1s1.2-0.9,1.7-1.5c-0.3,0-0.6,0.1-1,0.1s-0.7,0-1.1,0c-0.4,0-0.7,0-0.9,0
			s-0.4,0-0.4,0v-1.4c0,0,0.2,0,0.6,0c0.4,0,0.8,0,1.2,0c0.5,0,0.9,0,1.4,0s0.8,0,1.1-0.1c0.1-0.2,0.2-0.5,0.2-0.7s0.1-0.5,0.2-0.7
			H330.7z M342.3,310.8v5.8h-11.5v-5.8c0-0.2,0-0.4,0-0.6s0-0.4-0.1-0.6h2.1c0,0.2-0.1,0.4-0.1,0.6c0,0.2,0,0.4,0,0.6v0.6h7.6v-0.6
			c0-0.2,0-0.4,0-0.6s0-0.4-0.1-0.6h2.1c0,0.2-0.1,0.4-0.1,0.6C342.3,310.4,342.3,310.6,342.3,310.8z M340.3,315v-1.9h-7.6v1.9
			H340.3z M342.3,302.3v6.6h-1.9v-3.7h-1.7v3.7h-1.9v-6.3c0-0.4,0-0.7,0-1.1c0-0.4,0-0.7-0.1-1.1h2.1c0,0.4-0.1,0.7-0.1,1.1
			c0,0.4,0,0.7,0,1.1v0.8h1.7v-1.1c0-0.4,0-0.7,0-1.1s0-0.7-0.1-1.1h2.1c0,0.4-0.1,0.7-0.1,1.1C342.3,301.6,342.3,302,342.3,302.3z"
			/>
		<path class="st11" d="M348.6,304.5h-2c-0.3,0-0.5,0-0.7,0c-0.2,0-0.5,0-0.7,0.1v-1.9c0.3,0,0.5,0.1,0.7,0.1c0.2,0,0.5,0,0.7,0h2.1
			v-1.7c0-0.2,0-0.4,0-0.6c0-0.2,0-0.4,0-0.6h2.2c0,0.2,0,0.4,0,0.6c0,0.2,0,0.4,0,0.6v1.7h2c0.3,0,0.5,0,0.7,0c0.2,0,0.5,0,0.7-0.1
			v1.9c-0.3,0-0.5-0.1-0.7-0.1c-0.2,0-0.5,0-0.7,0h-2v1.4c0.1,1.3,0.5,2.5,1.2,3.5c0.7,1,1.6,1.9,2.9,2.5c-0.1,0.1-0.3,0.2-0.4,0.4
			s-0.3,0.2-0.4,0.4c-0.1,0.1-0.2,0.2-0.4,0.4c-0.1,0.1-0.2,0.2-0.3,0.3c-0.8-0.5-1.6-1.1-2.2-1.8c-0.6-0.7-1.1-1.4-1.5-2.3
			c-0.4,0.9-0.9,1.7-1.6,2.5s-1.5,1.4-2.2,1.9c-0.2-0.2-0.5-0.4-0.8-0.7c-0.3-0.2-0.6-0.5-0.9-0.7c1.3-0.7,2.4-1.6,3.1-2.8
			s1.2-2.4,1.3-3.7V304.5z M356.6,308.4h-1.8c-0.2,0-0.5,0-0.7,0c-0.2,0-0.5,0-0.7,0.1v-1.9c0.2,0,0.5,0.1,0.7,0.1
			c0.2,0,0.5,0,0.7,0h1.7v-4c0-0.4,0-0.8,0-1.2c0-0.4,0-0.8-0.1-1.3h2.2c0,0.4-0.1,0.8-0.1,1.3c0,0.4,0,0.8,0,1.2v11.7
			c0,0.4,0,0.8,0,1.3c0,0.4,0,0.8,0.1,1.2h-2.2c0-0.4,0.1-0.8,0.1-1.2c0-0.4,0-0.8,0-1.3V308.4z"/>
		<path class="st11" d="M363.5,303v8h2.1c0.4,0,0.9,0,1.4-0.1s1-0.1,1.5-0.1c0.5,0,1-0.1,1.4-0.2c0.5-0.1,0.8-0.1,1.2-0.2v1.7
			c-0.3,0.1-0.6,0.1-1,0.2c-0.4,0.1-0.9,0.1-1.3,0.2c-0.5,0.1-1,0.1-1.5,0.2s-1.1,0.1-1.6,0.1l-4.1,0V303c0-0.4,0-0.7,0-1.1
			s0-0.7-0.1-1.1h2.1c0,0.4-0.1,0.7-0.1,1.1C363.5,302.3,363.5,302.6,363.5,303z M373.9,306.3h0.9c0.2,0,0.5,0,0.7,0
			c0.2,0,0.5,0,0.7-0.1v2c-0.2,0-0.5-0.1-0.7-0.1s-0.5,0-0.7,0h-0.9v6.1c0,0.4,0,0.8,0,1.3c0,0.4,0,0.8,0.1,1.2h-2.2
			c0-0.4,0.1-0.8,0.1-1.2c0-0.4,0-0.8,0-1.3v-11.7c0-0.4,0-0.8,0-1.2c0-0.4,0-0.8-0.1-1.3h2.2c0,0.4-0.1,0.8-0.1,1.3
			c0,0.4,0,0.8,0,1.2V306.3z"/>
		<path class="st11" d="M385.4,302.9h-1.9c-0.3,0-0.5,0-0.7,0c-0.2,0-0.5,0-0.7,0.1v-1.9c0.3,0,0.5,0.1,0.7,0.1c0.2,0,0.5,0,0.7,0
			h6.1c0.3,0,0.5,0,0.7,0c0.2,0,0.5,0,0.7-0.1v1.9c-0.3,0-0.5-0.1-0.7-0.1c-0.2,0-0.5,0-0.7,0h-2v1.5c0,0.8,0.1,1.6,0.3,2.3
			c0.2,0.7,0.4,1.4,0.8,2c0.4,0.7,0.8,1.3,1.4,1.8c0.6,0.6,1.2,1,2,1.5c-0.3,0.2-0.5,0.5-0.8,0.7c-0.3,0.3-0.5,0.5-0.7,0.7
			c-0.3-0.2-0.7-0.5-1.1-0.8c-0.4-0.3-0.7-0.7-1.1-1c-0.4-0.4-0.8-0.8-1.1-1.3c-0.3-0.5-0.6-0.9-0.7-1.4c-0.1,0.5-0.4,0.9-0.7,1.4
			s-0.6,0.9-0.9,1.3c-0.4,0.5-0.8,0.9-1.2,1.2c-0.4,0.4-0.8,0.7-1.2,1c-0.2-0.2-0.5-0.4-0.8-0.6c-0.3-0.2-0.6-0.5-1-0.7
			c0.7-0.4,1.4-0.9,2-1.5s1.1-1.2,1.5-1.9c0.4-0.7,0.7-1.4,0.9-2.2c0.2-0.8,0.3-1.6,0.3-2.6V302.9z M394.8,306.5h0.9
			c0.2,0,0.5,0,0.7,0c0.2,0,0.5,0,0.7-0.1v2c-0.2,0-0.5-0.1-0.7-0.1c-0.3,0-0.5,0-0.7,0h-0.9v6c0,0.4,0,0.8,0,1.3
			c0,0.4,0,0.8,0.1,1.2h-2.2c0-0.4,0.1-0.8,0.1-1.2c0-0.4,0-0.8,0-1.3v-11.7c0-0.4,0-0.8,0-1.2c0-0.4,0-0.8-0.1-1.3h2.2
			c0,0.4-0.1,0.8-0.1,1.3c0,0.4,0,0.8,0,1.2V306.5z"/>
		<path class="st11" d="M401.5,310.6h-2.1v-5.7h9.5v-2.3h-7.8c-0.3,0-0.5,0-0.8,0c-0.3,0-0.5,0-0.8,0.1v-1.9c0.3,0,0.6,0.1,0.8,0.1
			c0.3,0,0.5,0,0.8,0h9.9c0,0.2-0.1,0.5-0.1,0.8c0,0.3,0,0.6,0,0.8v4.1h-9.5v2.3h8.2c0.3,0,0.6,0,0.8,0s0.5,0,0.8-0.1v1.9
			c-0.3,0-0.6-0.1-0.9-0.1c-0.3,0-0.5,0-0.8,0H409v2.7h1.1c0.5,0,1,0,1.4,0c0.5,0,0.9,0,1.4-0.1v1.9c-0.5,0-1-0.1-1.4-0.1
			c-0.5,0-0.9,0-1.4,0h-9.9c-0.5,0-1,0-1.4,0s-0.9,0-1.4,0.1v-1.9c0.5,0,1,0.1,1.4,0.1c0.5,0,0.9,0,1.4,0h1.2V310.6z M403.5,310.6
			v2.7h3.5v-2.7H403.5z"/>
	</g>
</g>
</svg>
