<?xml version="1.0" encoding="utf-8"?>
<!-- Generator: Adobe Illustrator 24.1.0, SVG Export Plug-In . SVG Version: 6.00 Build 0)  -->
<svg version="1.1" id="Layer_1" xmlns="http://www.w3.org/2000/svg" xmlns:xlink="http://www.w3.org/1999/xlink" x="0px" y="0px"
	 viewBox="0 0 512 149" style="enable-background:new 0 0 512 149;" xml:space="preserve">
<style type="text/css">
	.st0{fill:#FFFFFF;}
</style>
<g>
	<path class="st0" d="M3.3,115.6v-57h71.1v-3.3H3.3v-52H79V0H0v119h79.6v-3.3H3.3L3.3,115.6z M143.8,33.3l-29.5,38.8L85.5,33.3h-4.3
		l31.2,41.3L78.1,119h4l32.2-41.8l32.3,41.8h4.2l-34.3-44.3l31.3-41.3H143.8L143.8,33.3z M160.8,148.3V95h0.3
		c2,7.8,5.9,14,11.8,18.7c5.9,4.7,13.4,7.1,22.5,7.1c5.9,0,11.1-1.2,15.7-3.6s8.4-5.6,11.4-9.7c3.1-4.1,5.4-8.9,7-14.3
		c1.6-5.4,2.4-11.2,2.4-17.2c0-6.4-0.8-12.4-2.5-17.8c-1.7-5.4-4.1-10.2-7.2-14.2s-7-7.1-11.5-9.3c-4.5-2.2-9.6-3.3-15.2-3.3
		c-4.3,0-8.4,0.6-12.1,1.9c-3.7,1.3-7,3.1-9.9,5.4c-2.9,2.3-5.4,5.1-7.5,8.2c-2.1,3.2-3.7,6.6-4.8,10.4h-0.3v-24h-3.3v115H160.8
		L160.8,148.3z M195.4,117.6c-10.4,0-18.8-3.6-25.2-10.7c-6.3-7.2-9.5-17.5-9.5-30.9c0-5.6,0.8-10.8,2.3-15.8s3.8-9.4,6.7-13.2
		c2.9-3.8,6.6-6.8,10.9-9c4.3-2.2,9.2-3.3,14.7-3.3c5.6,0,10.4,1.1,14.6,3.3c4.2,2.2,7.6,5.2,10.3,9.1s4.8,8.2,6.2,13.2
		s2.1,10.2,2.1,15.7c0,5-0.6,10-1.9,14.9c-1.3,4.9-3.2,9.4-5.9,13.3c-2.7,3.9-6.1,7.2-10.2,9.7C206.3,116.4,201.3,117.6,195.4,117.6
		L195.4,117.6L195.4,117.6z M250.3,119V70.5c0-4.7,0.7-9.2,2-13.7s3.4-8.4,6.2-11.7c2.8-3.4,6.3-6.1,10.6-8
		c4.3-1.9,9.4-2.7,15.2-2.4v-3.3c-5.1-0.1-9.6,0.4-13.4,1.7c-3.8,1.2-7.1,2.9-9.9,5c-2.8,2.1-5,4.6-6.7,7.4
		c-1.7,2.8-2.9,5.9-3.7,9.1h-0.3V33.3h-3.3V119H250.3L250.3,119z M288.4,76.8H360c0.2-5.9-0.4-11.6-1.7-17
		c-1.4-5.4-3.6-10.3-6.7-14.5c-3.1-4.2-7-7.6-11.8-10.2s-10.6-3.8-17.2-3.8c-4.8,0-9.4,1-14,3s-8.6,4.9-12,8.7s-6.2,8.5-8.3,14.1
		s-3.2,11.9-3.2,19c0,6.3,0.7,12.2,2.2,17.7c1.4,5.5,3.7,10.3,6.7,14.3c3,4.1,6.9,7.2,11.6,9.4c4.7,2.2,10.4,3.3,17.1,3.2
		c9.8,0,18-2.7,24.7-8.2s10.6-13.2,11.8-23.2h-3.3c-1.4,9.4-5.1,16.5-11.1,21.2s-13.4,7.1-22.4,7.1c-6.1,0-11.3-1.1-15.5-3.2
		c-4.2-2.1-7.7-5-10.3-8.7c-2.7-3.7-4.6-8-5.9-12.9C289.2,87.9,288.5,82.6,288.4,76.8L288.4,76.8L288.4,76.8z M356.7,73.5h-68.3
		c0.3-6,1.4-11.4,3.3-16.2c1.9-4.8,4.4-8.9,7.4-12.2c3.1-3.4,6.6-6,10.7-7.7c4.1-1.8,8.4-2.7,13.1-2.7c5.6,0,10.4,1,14.7,3.1
		c4.2,2.1,7.7,4.9,10.6,8.4c2.8,3.6,5,7.7,6.4,12.4C356,63.3,356.7,68.3,356.7,73.5L356.7,73.5L356.7,73.5z M429.2,58.6h3.3
		c0-9.6-2.8-16.5-8.3-20.8s-13.1-6.5-22.7-6.5c-5.3,0-9.8,0.7-13.5,2c-3.7,1.3-6.7,3.1-9,5.2s-4,4.4-5,7c-1,2.6-1.5,5-1.5,7.3
		c0,4.7,0.8,8.4,2.5,11.2s4.3,4.9,7.8,6.5c2.4,1.1,5.2,2.1,8.3,3s6.7,1.8,10.8,2.8c3.7,0.9,7.3,1.8,10.8,2.7
		c3.6,0.9,6.7,2.1,9.4,3.6s4.9,3.4,6.7,5.7c1.7,2.3,2.6,5.4,2.6,9.2c0,3.7-0.9,6.8-2.6,9.3c-1.7,2.6-3.9,4.6-6.6,6.2
		c-2.7,1.6-5.6,2.8-8.9,3.5c-3.3,0.7-6.5,1.1-9.6,1.1c-10.1,0-17.9-2.2-23.2-6.7s-8.1-11.6-8.1-21.2h-3.3c0,10.8,2.9,18.7,8.7,23.7
		c5.8,5,14.5,7.5,25.9,7.5c3.7,0,7.4-0.4,11.1-1.2c3.7-0.8,7.1-2.2,10-4.1c2.9-1.9,5.3-4.3,7.2-7.3c1.8-3,2.7-6.7,2.7-11
		c0-4.1-0.8-7.4-2.4-10c-1.6-2.6-3.7-4.7-6.3-6.3c-2.6-1.7-5.6-3-8.8-3.9c-3.3-0.9-6.6-1.9-9.9-2.7c-4.7-1.2-8.7-2.3-12.2-3.2
		c-3.5-0.9-6.7-1.9-9.7-3.2c-2.9-1.2-5.2-3-6.9-5.2c-1.7-2.3-2.6-5.5-2.6-9.7c0-0.8,0.2-2.2,0.7-4.2s1.5-4,3.2-6.1
		c1.7-2.1,4.2-3.9,7.7-5.5s8.2-2.4,14.2-2.4c4.1,0,7.9,0.4,11.2,1.3c3.4,0.9,6.3,2.3,8.7,4.2c2.4,1.9,4.3,4.4,5.7,7.4
		S429.2,54.3,429.2,58.6L429.2,58.6L429.2,58.6z M506.3,58.6h3.3c0-9.6-2.8-16.5-8.3-20.8c-5.6-4.3-13.1-6.5-22.7-6.5
		c-5.3,0-9.8,0.7-13.5,2c-3.7,1.3-6.7,3.1-9,5.2s-4,4.4-5,7c-1,2.6-1.5,5-1.5,7.3c0,4.7,0.8,8.4,2.5,11.2s4.3,4.9,7.8,6.5
		c2.4,1.1,5.2,2.1,8.3,3c3.1,0.9,6.7,1.8,10.8,2.8c3.7,0.9,7.3,1.8,10.8,2.7c3.6,0.9,6.7,2.1,9.4,3.6c2.7,1.5,4.9,3.4,6.7,5.7
		c1.7,2.3,2.6,5.4,2.6,9.2c0,3.7-0.9,6.8-2.6,9.3c-1.7,2.6-3.9,4.6-6.6,6.2c-2.7,1.6-5.6,2.8-8.9,3.5s-6.5,1.1-9.6,1.1
		c-10.1,0-17.9-2.2-23.2-6.7c-5.4-4.5-8.1-11.6-8.1-21.2h-3.3c0,10.8,2.9,18.7,8.7,23.7c5.8,5,14.5,7.5,25.9,7.5
		c3.7,0,7.4-0.4,11.1-1.2s7.1-2.2,10-4.1c2.9-1.9,5.3-4.3,7.2-7.3c1.8-3,2.7-6.7,2.7-11c0-4.1-0.8-7.4-2.4-10
		c-1.6-2.6-3.7-4.7-6.3-6.3c-2.6-1.7-5.6-3-8.8-3.9c-3.3-0.9-6.6-1.9-9.9-2.7c-4.7-1.2-8.7-2.3-12.2-3.2s-6.7-1.9-9.7-3.2
		c-2.9-1.2-5.2-3-6.9-5.2c-1.7-2.3-2.6-5.5-2.6-9.7c0-0.8,0.2-2.2,0.7-4.2s1.5-4,3.2-6.1s4.2-3.9,7.7-5.5c3.4-1.6,8.2-2.4,14.2-2.4
		c4.1,0,7.9,0.4,11.2,1.3c3.4,0.9,6.3,2.3,8.7,4.2c2.4,1.9,4.3,4.4,5.7,7.4C505.7,50.7,506.3,54.3,506.3,58.6L506.3,58.6L506.3,58.6
		z"/>
</g>
</svg>
